solid ascii
  facet normal 8.715574e-002 9.961947e-001 -0.000000e+000
    outer loop
      vertex   -4.336824e+000 -1.242404e+000 7.500000e+000
      vertex   -4.336824e+000 -1.242404e+000 8.000000e+000
      vertex   -4.250000e+000 -1.250000e+000 7.500000e+000
    endloop
  endfacet
  facet normal 2.588190e-001 9.659258e-001 0.000000e+000
    outer loop
      vertex   -4.336824e+000 -1.242404e+000 7.500000e+000
      vertex   -4.421010e+000 -1.219846e+000 8.000000e+000
      vertex   -4.336824e+000 -1.242404e+000 8.000000e+000
    endloop
  endfacet
  facet normal 2.588190e-001 9.659258e-001 -0.000000e+000
    outer loop
      vertex   -4.336824e+000 -1.242404e+000 7.500000e+000
      vertex   -4.421010e+000 -1.219846e+000 7.500000e+000
      vertex   -4.421010e+000 -1.219846e+000 8.000000e+000
    endloop
  endfacet
  facet normal 4.226183e-001 9.063078e-001 0.000000e+000
    outer loop
      vertex   -4.421010e+000 -1.219846e+000 8.000000e+000
      vertex   -4.421010e+000 -1.219846e+000 7.500000e+000
      vertex   -4.500000e+000 -1.183013e+000 8.000000e+000
    endloop
  endfacet
  facet normal 4.226183e-001 9.063078e-001 0.000000e+000
    outer loop
      vertex   -4.500000e+000 -1.183013e+000 8.000000e+000
      vertex   -4.421010e+000 -1.219846e+000 7.500000e+000
      vertex   -4.500000e+000 -1.183013e+000 7.500000e+000
    endloop
  endfacet
  facet normal 5.735764e-001 8.191520e-001 0.000000e+000
    outer loop
      vertex   -4.571394e+000 -1.133022e+000 8.000000e+000
      vertex   -4.500000e+000 -1.183013e+000 7.500000e+000
      vertex   -4.571394e+000 -1.133022e+000 7.500000e+000
    endloop
  endfacet
  facet normal 7.071068e-001 7.071068e-001 0.000000e+000
    outer loop
      vertex   -4.633022e+000 -1.071394e+000 8.000000e+000
      vertex   -4.571394e+000 -1.133022e+000 7.500000e+000
      vertex   -4.633022e+000 -1.071394e+000 7.500000e+000
    endloop
  endfacet
  facet normal 8.191520e-001 5.735764e-001 0.000000e+000
    outer loop
      vertex   -4.683013e+000 -1.000000e+000 8.000000e+000
      vertex   -4.633022e+000 -1.071394e+000 7.500000e+000
      vertex   -4.683013e+000 -1.000000e+000 7.500000e+000
    endloop
  endfacet
  facet normal 9.063078e-001 4.226183e-001 0.000000e+000
    outer loop
      vertex   -4.719846e+000 -9.210101e-001 8.000000e+000
      vertex   -4.683013e+000 -1.000000e+000 7.500000e+000
      vertex   -4.719846e+000 -9.210101e-001 7.500000e+000
    endloop
  endfacet
  facet normal 9.659258e-001 2.588190e-001 0.000000e+000
    outer loop
      vertex   -4.742404e+000 -8.368241e-001 8.000000e+000
      vertex   -4.719846e+000 -9.210101e-001 7.500000e+000
      vertex   -4.742404e+000 -8.368241e-001 7.500000e+000
    endloop
  endfacet
  facet normal 9.961947e-001 8.715574e-002 0.000000e+000
    outer loop
      vertex   -4.750000e+000 -7.500000e-001 8.000000e+000
      vertex   -4.742404e+000 -8.368241e-001 7.500000e+000
      vertex   -4.750000e+000 -7.500000e-001 7.500000e+000
    endloop
  endfacet
  facet normal 9.961947e-001 -8.715574e-002 0.000000e+000
    outer loop
      vertex   -4.742404e+000 -6.631759e-001 8.000000e+000
      vertex   -4.750000e+000 -7.500000e-001 7.500000e+000
      vertex   -4.742404e+000 -6.631759e-001 7.500000e+000
    endloop
  endfacet
  facet normal 9.659258e-001 -2.588190e-001 0.000000e+000
    outer loop
      vertex   -4.719846e+000 -5.789899e-001 8.000000e+000
      vertex   -4.742404e+000 -6.631759e-001 7.500000e+000
      vertex   -4.719846e+000 -5.789899e-001 7.500000e+000
    endloop
  endfacet
  facet normal 9.063078e-001 -4.226183e-001 0.000000e+000
    outer loop
      vertex   -4.683013e+000 -5.000000e-001 8.000000e+000
      vertex   -4.719846e+000 -5.789899e-001 7.500000e+000
      vertex   -4.683013e+000 -5.000000e-001 7.500000e+000
    endloop
  endfacet
  facet normal 8.191520e-001 -5.735764e-001 0.000000e+000
    outer loop
      vertex   -4.633022e+000 -4.286062e-001 8.000000e+000
      vertex   -4.683013e+000 -5.000000e-001 7.500000e+000
      vertex   -4.633022e+000 -4.286062e-001 7.500000e+000
    endloop
  endfacet
  facet normal 7.071068e-001 -7.071068e-001 0.000000e+000
    outer loop
      vertex   -4.571394e+000 -3.669778e-001 8.000000e+000
      vertex   -4.633022e+000 -4.286062e-001 7.500000e+000
      vertex   -4.571394e+000 -3.669778e-001 7.500000e+000
    endloop
  endfacet
  facet normal 5.735764e-001 -8.191520e-001 0.000000e+000
    outer loop
      vertex   -4.500000e+000 -3.169873e-001 8.000000e+000
      vertex   -4.571394e+000 -3.669778e-001 7.500000e+000
      vertex   -4.500000e+000 -3.169873e-001 7.500000e+000
    endloop
  endfacet
  facet normal 4.226183e-001 -9.063078e-001 0.000000e+000
    outer loop
      vertex   -4.421010e+000 -2.801537e-001 8.000000e+000
      vertex   -4.500000e+000 -3.169873e-001 7.500000e+000
      vertex   -4.421010e+000 -2.801537e-001 7.500000e+000
    endloop
  endfacet
  facet normal 2.588190e-001 -9.659258e-001 0.000000e+000
    outer loop
      vertex   -4.336824e+000 -2.575961e-001 8.000000e+000
      vertex   -4.421010e+000 -2.801537e-001 7.500000e+000
      vertex   -4.336824e+000 -2.575961e-001 7.500000e+000
    endloop
  endfacet
  facet normal 8.715574e-002 -9.961947e-001 0.000000e+000
    outer loop
      vertex   -4.250000e+000 -2.500000e-001 8.000000e+000
      vertex   -4.336824e+000 -2.575961e-001 7.500000e+000
      vertex   -4.250000e+000 -2.500000e-001 7.500000e+000
    endloop
  endfacet
  facet normal -8.715574e-002 -9.961947e-001 0.000000e+000
    outer loop
      vertex   -4.163176e+000 -2.575961e-001 8.000000e+000
      vertex   -4.250000e+000 -2.500000e-001 7.500000e+000
      vertex   -4.163176e+000 -2.575961e-001 7.500000e+000
    endloop
  endfacet
  facet normal -2.588190e-001 -9.659258e-001 0.000000e+000
    outer loop
      vertex   -4.078990e+000 -2.801537e-001 8.000000e+000
      vertex   -4.163176e+000 -2.575961e-001 7.500000e+000
      vertex   -4.078990e+000 -2.801537e-001 7.500000e+000
    endloop
  endfacet
  facet normal -4.226183e-001 -9.063078e-001 0.000000e+000
    outer loop
      vertex   -4.000000e+000 -3.169873e-001 8.000000e+000
      vertex   -4.078990e+000 -2.801537e-001 7.500000e+000
      vertex   -4.000000e+000 -3.169873e-001 7.500000e+000
    endloop
  endfacet
  facet normal -5.735764e-001 -8.191520e-001 0.000000e+000
    outer loop
      vertex   -3.928606e+000 -3.669778e-001 8.000000e+000
      vertex   -4.000000e+000 -3.169873e-001 7.500000e+000
      vertex   -3.928606e+000 -3.669778e-001 7.500000e+000
    endloop
  endfacet
  facet normal -7.071068e-001 -7.071068e-001 0.000000e+000
    outer loop
      vertex   -3.866978e+000 -4.286062e-001 8.000000e+000
      vertex   -3.928606e+000 -3.669778e-001 7.500000e+000
      vertex   -3.866978e+000 -4.286062e-001 7.500000e+000
    endloop
  endfacet
  facet normal -8.191520e-001 -5.735764e-001 0.000000e+000
    outer loop
      vertex   -3.816987e+000 -5.000000e-001 8.000000e+000
      vertex   -3.866978e+000 -4.286062e-001 7.500000e+000
      vertex   -3.816987e+000 -5.000000e-001 7.500000e+000
    endloop
  endfacet
  facet normal -9.063078e-001 -4.226183e-001 0.000000e+000
    outer loop
      vertex   -3.780154e+000 -5.789899e-001 8.000000e+000
      vertex   -3.816987e+000 -5.000000e-001 7.500000e+000
      vertex   -3.780154e+000 -5.789899e-001 7.500000e+000
    endloop
  endfacet
  facet normal -9.659258e-001 -2.588190e-001 0.000000e+000
    outer loop
      vertex   -3.757596e+000 -6.631759e-001 8.000000e+000
      vertex   -3.780154e+000 -5.789899e-001 7.500000e+000
      vertex   -3.757596e+000 -6.631759e-001 7.500000e+000
    endloop
  endfacet
  facet normal -9.961947e-001 -8.715574e-002 0.000000e+000
    outer loop
      vertex   -3.750000e+000 -7.500000e-001 8.000000e+000
      vertex   -3.757596e+000 -6.631759e-001 7.500000e+000
      vertex   -3.750000e+000 -7.500000e-001 7.500000e+000
    endloop
  endfacet
  facet normal -9.961947e-001 8.715574e-002 0.000000e+000
    outer loop
      vertex   -3.757596e+000 -8.368241e-001 8.000000e+000
      vertex   -3.750000e+000 -7.500000e-001 7.500000e+000
      vertex   -3.757596e+000 -8.368241e-001 7.500000e+000
    endloop
  endfacet
  facet normal -9.659258e-001 2.588190e-001 0.000000e+000
    outer loop
      vertex   -3.780154e+000 -9.210101e-001 8.000000e+000
      vertex   -3.757596e+000 -8.368241e-001 7.500000e+000
      vertex   -3.780154e+000 -9.210101e-001 7.500000e+000
    endloop
  endfacet
  facet normal -9.063078e-001 4.226183e-001 0.000000e+000
    outer loop
      vertex   -3.816987e+000 -1.000000e+000 8.000000e+000
      vertex   -3.780154e+000 -9.210101e-001 7.500000e+000
      vertex   -3.816987e+000 -1.000000e+000 7.500000e+000
    endloop
  endfacet
  facet normal -8.191520e-001 5.735764e-001 0.000000e+000
    outer loop
      vertex   -3.866978e+000 -1.071394e+000 8.000000e+000
      vertex   -3.816987e+000 -1.000000e+000 7.500000e+000
      vertex   -3.866978e+000 -1.071394e+000 7.500000e+000
    endloop
  endfacet
  facet normal -7.071068e-001 7.071068e-001 0.000000e+000
    outer loop
      vertex   -3.928606e+000 -1.133022e+000 8.000000e+000
      vertex   -3.866978e+000 -1.071394e+000 7.500000e+000
      vertex   -3.928606e+000 -1.133022e+000 7.500000e+000
    endloop
  endfacet
  facet normal -5.735764e-001 8.191520e-001 0.000000e+000
    outer loop
      vertex   -4.000000e+000 -1.183013e+000 8.000000e+000
      vertex   -3.928606e+000 -1.133022e+000 7.500000e+000
      vertex   -4.000000e+000 -1.183013e+000 7.500000e+000
    endloop
  endfacet
  facet normal -4.226183e-001 9.063078e-001 0.000000e+000
    outer loop
      vertex   -4.078990e+000 -1.219846e+000 8.000000e+000
      vertex   -4.000000e+000 -1.183013e+000 7.500000e+000
      vertex   -4.078990e+000 -1.219846e+000 7.500000e+000
    endloop
  endfacet
  facet normal -2.588190e-001 9.659258e-001 0.000000e+000
    outer loop
      vertex   -4.163176e+000 -1.242404e+000 8.000000e+000
      vertex   -4.078990e+000 -1.219846e+000 7.500000e+000
      vertex   -4.163176e+000 -1.242404e+000 7.500000e+000
    endloop
  endfacet
  facet normal -8.715574e-002 9.961947e-001 0.000000e+000
    outer loop
      vertex   -4.250000e+000 -1.250000e+000 8.000000e+000
      vertex   -4.163176e+000 -1.242404e+000 7.500000e+000
      vertex   -4.250000e+000 -1.250000e+000 7.500000e+000
    endloop
  endfacet
  facet normal 8.715574e-002 9.961947e-001 0.000000e+000
    outer loop
      vertex   -4.336824e+000 -1.242404e+000 8.000000e+000
      vertex   -4.250000e+000 -1.250000e+000 8.000000e+000
      vertex   -4.250000e+000 -1.250000e+000 7.500000e+000
    endloop
  endfacet
  facet normal 5.735764e-001 8.191520e-001 0.000000e+000
    outer loop
      vertex   -4.500000e+000 -1.183013e+000 8.000000e+000
      vertex   -4.500000e+000 -1.183013e+000 7.500000e+000
      vertex   -4.571394e+000 -1.133022e+000 8.000000e+000
    endloop
  endfacet
  facet normal 7.071068e-001 7.071068e-001 0.000000e+000
    outer loop
      vertex   -4.571394e+000 -1.133022e+000 8.000000e+000
      vertex   -4.571394e+000 -1.133022e+000 7.500000e+000
      vertex   -4.633022e+000 -1.071394e+000 8.000000e+000
    endloop
  endfacet
  facet normal 8.191520e-001 5.735764e-001 0.000000e+000
    outer loop
      vertex   -4.633022e+000 -1.071394e+000 8.000000e+000
      vertex   -4.633022e+000 -1.071394e+000 7.500000e+000
      vertex   -4.683013e+000 -1.000000e+000 8.000000e+000
    endloop
  endfacet
  facet normal 9.063078e-001 4.226183e-001 0.000000e+000
    outer loop
      vertex   -4.683013e+000 -1.000000e+000 8.000000e+000
      vertex   -4.683013e+000 -1.000000e+000 7.500000e+000
      vertex   -4.719846e+000 -9.210101e-001 8.000000e+000
    endloop
  endfacet
  facet normal 9.659258e-001 2.588190e-001 0.000000e+000
    outer loop
      vertex   -4.719846e+000 -9.210101e-001 8.000000e+000
      vertex   -4.719846e+000 -9.210101e-001 7.500000e+000
      vertex   -4.742404e+000 -8.368241e-001 8.000000e+000
    endloop
  endfacet
  facet normal 9.961947e-001 8.715574e-002 0.000000e+000
    outer loop
      vertex   -4.742404e+000 -8.368241e-001 8.000000e+000
      vertex   -4.742404e+000 -8.368241e-001 7.500000e+000
      vertex   -4.750000e+000 -7.500000e-001 8.000000e+000
    endloop
  endfacet
  facet normal 9.961947e-001 -8.715574e-002 0.000000e+000
    outer loop
      vertex   -4.750000e+000 -7.500000e-001 8.000000e+000
      vertex   -4.750000e+000 -7.500000e-001 7.500000e+000
      vertex   -4.742404e+000 -6.631759e-001 8.000000e+000
    endloop
  endfacet
  facet normal 9.659258e-001 -2.588190e-001 0.000000e+000
    outer loop
      vertex   -4.742404e+000 -6.631759e-001 8.000000e+000
      vertex   -4.742404e+000 -6.631759e-001 7.500000e+000
      vertex   -4.719846e+000 -5.789899e-001 8.000000e+000
    endloop
  endfacet
  facet normal 9.063078e-001 -4.226183e-001 0.000000e+000
    outer loop
      vertex   -4.719846e+000 -5.789899e-001 8.000000e+000
      vertex   -4.719846e+000 -5.789899e-001 7.500000e+000
      vertex   -4.683013e+000 -5.000000e-001 8.000000e+000
    endloop
  endfacet
  facet normal 8.191520e-001 -5.735764e-001 0.000000e+000
    outer loop
      vertex   -4.683013e+000 -5.000000e-001 8.000000e+000
      vertex   -4.683013e+000 -5.000000e-001 7.500000e+000
      vertex   -4.633022e+000 -4.286062e-001 8.000000e+000
    endloop
  endfacet
  facet normal 7.071068e-001 -7.071068e-001 0.000000e+000
    outer loop
      vertex   -4.633022e+000 -4.286062e-001 8.000000e+000
      vertex   -4.633022e+000 -4.286062e-001 7.500000e+000
      vertex   -4.571394e+000 -3.669778e-001 8.000000e+000
    endloop
  endfacet
  facet normal 5.735764e-001 -8.191520e-001 0.000000e+000
    outer loop
      vertex   -4.571394e+000 -3.669778e-001 8.000000e+000
      vertex   -4.571394e+000 -3.669778e-001 7.500000e+000
      vertex   -4.500000e+000 -3.169873e-001 8.000000e+000
    endloop
  endfacet
  facet normal 4.226183e-001 -9.063078e-001 0.000000e+000
    outer loop
      vertex   -4.500000e+000 -3.169873e-001 8.000000e+000
      vertex   -4.500000e+000 -3.169873e-001 7.500000e+000
      vertex   -4.421010e+000 -2.801537e-001 8.000000e+000
    endloop
  endfacet
  facet normal 2.588190e-001 -9.659258e-001 0.000000e+000
    outer loop
      vertex   -4.421010e+000 -2.801537e-001 8.000000e+000
      vertex   -4.421010e+000 -2.801537e-001 7.500000e+000
      vertex   -4.336824e+000 -2.575961e-001 8.000000e+000
    endloop
  endfacet
  facet normal 8.715574e-002 -9.961947e-001 0.000000e+000
    outer loop
      vertex   -4.336824e+000 -2.575961e-001 8.000000e+000
      vertex   -4.336824e+000 -2.575961e-001 7.500000e+000
      vertex   -4.250000e+000 -2.500000e-001 8.000000e+000
    endloop
  endfacet
  facet normal -8.715574e-002 -9.961947e-001 -0.000000e+000
    outer loop
      vertex   -4.250000e+000 -2.500000e-001 8.000000e+000
      vertex   -4.250000e+000 -2.500000e-001 7.500000e+000
      vertex   -4.163176e+000 -2.575961e-001 8.000000e+000
    endloop
  endfacet
  facet normal -2.588190e-001 -9.659258e-001 -0.000000e+000
    outer loop
      vertex   -4.163176e+000 -2.575961e-001 8.000000e+000
      vertex   -4.163176e+000 -2.575961e-001 7.500000e+000
      vertex   -4.078990e+000 -2.801537e-001 8.000000e+000
    endloop
  endfacet
  facet normal -4.226183e-001 -9.063078e-001 -0.000000e+000
    outer loop
      vertex   -4.078990e+000 -2.801537e-001 8.000000e+000
      vertex   -4.078990e+000 -2.801537e-001 7.500000e+000
      vertex   -4.000000e+000 -3.169873e-001 8.000000e+000
    endloop
  endfacet
  facet normal -5.735764e-001 -8.191520e-001 -0.000000e+000
    outer loop
      vertex   -4.000000e+000 -3.169873e-001 8.000000e+000
      vertex   -4.000000e+000 -3.169873e-001 7.500000e+000
      vertex   -3.928606e+000 -3.669778e-001 8.000000e+000
    endloop
  endfacet
  facet normal -7.071068e-001 -7.071068e-001 -0.000000e+000
    outer loop
      vertex   -3.928606e+000 -3.669778e-001 8.000000e+000
      vertex   -3.928606e+000 -3.669778e-001 7.500000e+000
      vertex   -3.866978e+000 -4.286062e-001 8.000000e+000
    endloop
  endfacet
  facet normal -8.191520e-001 -5.735764e-001 -0.000000e+000
    outer loop
      vertex   -3.866978e+000 -4.286062e-001 8.000000e+000
      vertex   -3.866978e+000 -4.286062e-001 7.500000e+000
      vertex   -3.816987e+000 -5.000000e-001 8.000000e+000
    endloop
  endfacet
  facet normal -9.063078e-001 -4.226183e-001 -0.000000e+000
    outer loop
      vertex   -3.816987e+000 -5.000000e-001 8.000000e+000
      vertex   -3.816987e+000 -5.000000e-001 7.500000e+000
      vertex   -3.780154e+000 -5.789899e-001 8.000000e+000
    endloop
  endfacet
  facet normal -9.659258e-001 -2.588190e-001 -0.000000e+000
    outer loop
      vertex   -3.780154e+000 -5.789899e-001 8.000000e+000
      vertex   -3.780154e+000 -5.789899e-001 7.500000e+000
      vertex   -3.757596e+000 -6.631759e-001 8.000000e+000
    endloop
  endfacet
  facet normal -9.961947e-001 -8.715574e-002 -0.000000e+000
    outer loop
      vertex   -3.757596e+000 -6.631759e-001 8.000000e+000
      vertex   -3.757596e+000 -6.631759e-001 7.500000e+000
      vertex   -3.750000e+000 -7.500000e-001 8.000000e+000
    endloop
  endfacet
  facet normal -9.961947e-001 8.715574e-002 0.000000e+000
    outer loop
      vertex   -3.750000e+000 -7.500000e-001 8.000000e+000
      vertex   -3.750000e+000 -7.500000e-001 7.500000e+000
      vertex   -3.757596e+000 -8.368241e-001 8.000000e+000
    endloop
  endfacet
  facet normal -9.659258e-001 2.588190e-001 0.000000e+000
    outer loop
      vertex   -3.757596e+000 -8.368241e-001 8.000000e+000
      vertex   -3.757596e+000 -8.368241e-001 7.500000e+000
      vertex   -3.780154e+000 -9.210101e-001 8.000000e+000
    endloop
  endfacet
  facet normal -9.063078e-001 4.226183e-001 0.000000e+000
    outer loop
      vertex   -3.780154e+000 -9.210101e-001 8.000000e+000
      vertex   -3.780154e+000 -9.210101e-001 7.500000e+000
      vertex   -3.816987e+000 -1.000000e+000 8.000000e+000
    endloop
  endfacet
  facet normal -8.191520e-001 5.735764e-001 0.000000e+000
    outer loop
      vertex   -3.816987e+000 -1.000000e+000 8.000000e+000
      vertex   -3.816987e+000 -1.000000e+000 7.500000e+000
      vertex   -3.866978e+000 -1.071394e+000 8.000000e+000
    endloop
  endfacet
  facet normal -7.071068e-001 7.071068e-001 0.000000e+000
    outer loop
      vertex   -3.866978e+000 -1.071394e+000 8.000000e+000
      vertex   -3.866978e+000 -1.071394e+000 7.500000e+000
      vertex   -3.928606e+000 -1.133022e+000 8.000000e+000
    endloop
  endfacet
  facet normal -5.735764e-001 8.191520e-001 0.000000e+000
    outer loop
      vertex   -3.928606e+000 -1.133022e+000 8.000000e+000
      vertex   -3.928606e+000 -1.133022e+000 7.500000e+000
      vertex   -4.000000e+000 -1.183013e+000 8.000000e+000
    endloop
  endfacet
  facet normal -4.226183e-001 9.063078e-001 0.000000e+000
    outer loop
      vertex   -4.000000e+000 -1.183013e+000 8.000000e+000
      vertex   -4.000000e+000 -1.183013e+000 7.500000e+000
      vertex   -4.078990e+000 -1.219846e+000 8.000000e+000
    endloop
  endfacet
  facet normal -2.588190e-001 9.659258e-001 0.000000e+000
    outer loop
      vertex   -4.078990e+000 -1.219846e+000 8.000000e+000
      vertex   -4.078990e+000 -1.219846e+000 7.500000e+000
      vertex   -4.163176e+000 -1.242404e+000 8.000000e+000
    endloop
  endfacet
  facet normal -8.715574e-002 9.961947e-001 0.000000e+000
    outer loop
      vertex   -4.163176e+000 -1.242404e+000 8.000000e+000
      vertex   -4.163176e+000 -1.242404e+000 7.500000e+000
      vertex   -4.250000e+000 -1.250000e+000 8.000000e+000
    endloop
  endfacet
  facet normal 0.000000e+000 -0.000000e+000 1.000000e+000
    outer loop
      vertex   -4.163176e+000 -1.242404e+000 7.500000e+000
      vertex   -4.163176e+000 -2.575961e-001 7.500000e+000
      vertex   -4.250000e+000 -1.250000e+000 7.500000e+000
    endloop
  endfacet
  facet normal 0.000000e+000 -0.000000e+000 1.000000e+000
    outer loop
      vertex   -4.163176e+000 -1.242404e+000 7.500000e+000
      vertex   -4.078990e+000 -2.801537e-001 7.500000e+000
      vertex   -4.163176e+000 -2.575961e-001 7.500000e+000
    endloop
  endfacet
  facet normal 0.000000e+000 0.000000e+000 1.000000e+000
    outer loop
      vertex   -4.163176e+000 -1.242404e+000 7.500000e+000
      vertex   -4.078990e+000 -1.219846e+000 7.500000e+000
      vertex   -4.078990e+000 -2.801537e-001 7.500000e+000
    endloop
  endfacet
  facet normal -0.000000e+000 0.000000e+000 1.000000e+000
    outer loop
      vertex   -4.078990e+000 -2.801537e-001 7.500000e+000
      vertex   -4.078990e+000 -1.219846e+000 7.500000e+000
      vertex   -4.000000e+000 -3.169873e-001 7.500000e+000
    endloop
  endfacet
  facet normal -0.000000e+000 0.000000e+000 1.000000e+000
    outer loop
      vertex   -4.000000e+000 -3.169873e-001 7.500000e+000
      vertex   -4.078990e+000 -1.219846e+000 7.500000e+000
      vertex   -4.000000e+000 -1.183013e+000 7.500000e+000
    endloop
  endfacet
  facet normal -0.000000e+000 0.000000e+000 1.000000e+000
    outer loop
      vertex   -3.928606e+000 -3.669778e-001 7.500000e+000
      vertex   -4.000000e+000 -1.183013e+000 7.500000e+000
      vertex   -3.928606e+000 -1.133022e+000 7.500000e+000
    endloop
  endfacet
  facet normal -0.000000e+000 0.000000e+000 1.000000e+000
    outer loop
      vertex   -3.866978e+000 -4.286062e-001 7.500000e+000
      vertex   -3.928606e+000 -1.133022e+000 7.500000e+000
      vertex   -3.866978e+000 -1.071394e+000 7.500000e+000
    endloop
  endfacet
  facet normal -0.000000e+000 0.000000e+000 1.000000e+000
    outer loop
      vertex   -3.816987e+000 -5.000000e-001 7.500000e+000
      vertex   -3.866978e+000 -1.071394e+000 7.500000e+000
      vertex   -3.816987e+000 -1.000000e+000 7.500000e+000
    endloop
  endfacet
  facet normal -0.000000e+000 0.000000e+000 1.000000e+000
    outer loop
      vertex   -3.780154e+000 -5.789899e-001 7.500000e+000
      vertex   -3.816987e+000 -1.000000e+000 7.500000e+000
      vertex   -3.780154e+000 -9.210101e-001 7.500000e+000
    endloop
  endfacet
  facet normal -0.000000e+000 0.000000e+000 1.000000e+000
    outer loop
      vertex   -3.757596e+000 -6.631759e-001 7.500000e+000
      vertex   -3.780154e+000 -9.210101e-001 7.500000e+000
      vertex   -3.757596e+000 -8.368241e-001 7.500000e+000
    endloop
  endfacet
  facet normal 0.000000e+000 0.000000e+000 1.000000e+000
    outer loop
      vertex   -3.750000e+000 -7.500000e-001 7.500000e+000
      vertex   -3.757596e+000 -6.631759e-001 7.500000e+000
      vertex   -3.757596e+000 -8.368241e-001 7.500000e+000
    endloop
  endfacet
  facet normal -0.000000e+000 0.000000e+000 1.000000e+000
    outer loop
      vertex   -4.000000e+000 -3.169873e-001 7.500000e+000
      vertex   -4.000000e+000 -1.183013e+000 7.500000e+000
      vertex   -3.928606e+000 -3.669778e-001 7.500000e+000
    endloop
  endfacet
  facet normal -0.000000e+000 0.000000e+000 1.000000e+000
    outer loop
      vertex   -3.928606e+000 -3.669778e-001 7.500000e+000
      vertex   -3.928606e+000 -1.133022e+000 7.500000e+000
      vertex   -3.866978e+000 -4.286062e-001 7.500000e+000
    endloop
  endfacet
  facet normal -0.000000e+000 0.000000e+000 1.000000e+000
    outer loop
      vertex   -3.866978e+000 -4.286062e-001 7.500000e+000
      vertex   -3.866978e+000 -1.071394e+000 7.500000e+000
      vertex   -3.816987e+000 -5.000000e-001 7.500000e+000
    endloop
  endfacet
  facet normal -0.000000e+000 0.000000e+000 1.000000e+000
    outer loop
      vertex   -3.816987e+000 -5.000000e-001 7.500000e+000
      vertex   -3.816987e+000 -1.000000e+000 7.500000e+000
      vertex   -3.780154e+000 -5.789899e-001 7.500000e+000
    endloop
  endfacet
  facet normal -0.000000e+000 0.000000e+000 1.000000e+000
    outer loop
      vertex   -3.780154e+000 -5.789899e-001 7.500000e+000
      vertex   -3.780154e+000 -9.210101e-001 7.500000e+000
      vertex   -3.757596e+000 -6.631759e-001 7.500000e+000
    endloop
  endfacet
  facet normal 0.000000e+000 0.000000e+000 1.000000e+000
    outer loop
      vertex   -4.163176e+000 -2.575961e-001 7.500000e+000
      vertex   -4.250000e+000 -2.500000e-001 7.500000e+000
      vertex   -4.250000e+000 -1.250000e+000 7.500000e+000
    endloop
  endfacet
  facet normal 0.000000e+000 -0.000000e+000 1.000000e+000
    outer loop
      vertex   -4.250000e+000 -1.250000e+000 7.500000e+000
      vertex   -4.250000e+000 -2.500000e-001 7.500000e+000
      vertex   -4.336824e+000 -1.242404e+000 7.500000e+000
    endloop
  endfacet
  facet normal 0.000000e+000 -0.000000e+000 1.000000e+000
    outer loop
      vertex   -4.336824e+000 -1.242404e+000 7.500000e+000
      vertex   -4.250000e+000 -2.500000e-001 7.500000e+000
      vertex   -4.336824e+000 -2.575961e-001 7.500000e+000
    endloop
  endfacet
  facet normal 0.000000e+000 -0.000000e+000 1.000000e+000
    outer loop
      vertex   -4.421010e+000 -1.219846e+000 7.500000e+000
      vertex   -4.336824e+000 -2.575961e-001 7.500000e+000
      vertex   -4.421010e+000 -2.801537e-001 7.500000e+000
    endloop
  endfacet
  facet normal 0.000000e+000 -0.000000e+000 1.000000e+000
    outer loop
      vertex   -4.500000e+000 -1.183013e+000 7.500000e+000
      vertex   -4.421010e+000 -2.801537e-001 7.500000e+000
      vertex   -4.500000e+000 -3.169873e-001 7.500000e+000
    endloop
  endfacet
  facet normal 0.000000e+000 -0.000000e+000 1.000000e+000
    outer loop
      vertex   -4.571394e+000 -1.133022e+000 7.500000e+000
      vertex   -4.500000e+000 -3.169873e-001 7.500000e+000
      vertex   -4.571394e+000 -3.669778e-001 7.500000e+000
    endloop
  endfacet
  facet normal 0.000000e+000 -0.000000e+000 1.000000e+000
    outer loop
      vertex   -4.633022e+000 -1.071394e+000 7.500000e+000
      vertex   -4.571394e+000 -3.669778e-001 7.500000e+000
      vertex   -4.633022e+000 -4.286062e-001 7.500000e+000
    endloop
  endfacet
  facet normal 0.000000e+000 -0.000000e+000 1.000000e+000
    outer loop
      vertex   -4.683013e+000 -1.000000e+000 7.500000e+000
      vertex   -4.633022e+000 -4.286062e-001 7.500000e+000
      vertex   -4.683013e+000 -5.000000e-001 7.500000e+000
    endloop
  endfacet
  facet normal 0.000000e+000 -0.000000e+000 1.000000e+000
    outer loop
      vertex   -4.719846e+000 -9.210101e-001 7.500000e+000
      vertex   -4.683013e+000 -5.000000e-001 7.500000e+000
      vertex   -4.719846e+000 -5.789899e-001 7.500000e+000
    endloop
  endfacet
  facet normal 0.000000e+000 -0.000000e+000 1.000000e+000
    outer loop
      vertex   -4.742404e+000 -8.368241e-001 7.500000e+000
      vertex   -4.719846e+000 -5.789899e-001 7.500000e+000
      vertex   -4.742404e+000 -6.631759e-001 7.500000e+000
    endloop
  endfacet
  facet normal -0.000000e+000 0.000000e+000 1.000000e+000
    outer loop
      vertex   -4.750000e+000 -7.500000e-001 7.500000e+000
      vertex   -4.742404e+000 -8.368241e-001 7.500000e+000
      vertex   -4.742404e+000 -6.631759e-001 7.500000e+000
    endloop
  endfacet
  facet normal 0.000000e+000 -0.000000e+000 1.000000e+000
    outer loop
      vertex   -4.336824e+000 -1.242404e+000 7.500000e+000
      vertex   -4.336824e+000 -2.575961e-001 7.500000e+000
      vertex   -4.421010e+000 -1.219846e+000 7.500000e+000
    endloop
  endfacet
  facet normal 0.000000e+000 -0.000000e+000 1.000000e+000
    outer loop
      vertex   -4.421010e+000 -1.219846e+000 7.500000e+000
      vertex   -4.421010e+000 -2.801537e-001 7.500000e+000
      vertex   -4.500000e+000 -1.183013e+000 7.500000e+000
    endloop
  endfacet
  facet normal 0.000000e+000 -0.000000e+000 1.000000e+000
    outer loop
      vertex   -4.500000e+000 -1.183013e+000 7.500000e+000
      vertex   -4.500000e+000 -3.169873e-001 7.500000e+000
      vertex   -4.571394e+000 -1.133022e+000 7.500000e+000
    endloop
  endfacet
  facet normal 0.000000e+000 -0.000000e+000 1.000000e+000
    outer loop
      vertex   -4.571394e+000 -1.133022e+000 7.500000e+000
      vertex   -4.571394e+000 -3.669778e-001 7.500000e+000
      vertex   -4.633022e+000 -1.071394e+000 7.500000e+000
    endloop
  endfacet
  facet normal 0.000000e+000 -0.000000e+000 1.000000e+000
    outer loop
      vertex   -4.633022e+000 -1.071394e+000 7.500000e+000
      vertex   -4.633022e+000 -4.286062e-001 7.500000e+000
      vertex   -4.683013e+000 -1.000000e+000 7.500000e+000
    endloop
  endfacet
  facet normal 0.000000e+000 -0.000000e+000 1.000000e+000
    outer loop
      vertex   -4.683013e+000 -1.000000e+000 7.500000e+000
      vertex   -4.683013e+000 -5.000000e-001 7.500000e+000
      vertex   -4.719846e+000 -9.210101e-001 7.500000e+000
    endloop
  endfacet
  facet normal 0.000000e+000 -0.000000e+000 1.000000e+000
    outer loop
      vertex   -4.719846e+000 -9.210101e-001 7.500000e+000
      vertex   -4.719846e+000 -5.789899e-001 7.500000e+000
      vertex   -4.742404e+000 -8.368241e-001 7.500000e+000
    endloop
  endfacet
  facet normal 9.864006e-001 -1.643590e-001 0.000000e+000
    outer loop
      vertex   -6.711774e+000 5.500000e+000 8.000000e+000
      vertex   -7.586555e+000 2.500000e-001 8.000000e+000
      vertex   -6.711774e+000 5.500000e+000 7.500000e+000
    endloop
  endfacet
  facet normal 9.864006e-001 -1.643590e-001 0.000000e+000
    outer loop
      vertex   -6.711774e+000 5.500000e+000 7.500000e+000
      vertex   -7.586555e+000 2.500000e-001 8.000000e+000
      vertex   -7.586555e+000 2.500000e-001 7.500000e+000
    endloop
  endfacet
  facet normal 7.964543e-016 -1.000000e+000 0.000000e+000
    outer loop
      vertex   -7.586555e+000 2.500000e-001 8.000000e+000
      vertex   -1.316238e+001 2.500000e-001 8.000000e+000
      vertex   -7.586555e+000 2.500000e-001 7.500000e+000
    endloop
  endfacet
  facet normal 7.964543e-016 -1.000000e+000 0.000000e+000
    outer loop
      vertex   -7.586555e+000 2.500000e-001 7.500000e+000
      vertex   -1.316238e+001 2.500000e-001 8.000000e+000
      vertex   -1.316238e+001 2.500000e-001 7.500000e+000
    endloop
  endfacet
  facet normal -9.864006e-001 1.643590e-001 0.000000e+000
    outer loop
      vertex   -1.316238e+001 2.500000e-001 8.000000e+000
      vertex   -1.228760e+001 5.500000e+000 8.000000e+000
      vertex   -1.316238e+001 2.500000e-001 7.500000e+000
    endloop
  endfacet
  facet normal -9.864006e-001 1.643590e-001 0.000000e+000
    outer loop
      vertex   -1.316238e+001 2.500000e-001 7.500000e+000
      vertex   -1.228760e+001 5.500000e+000 8.000000e+000
      vertex   -1.228760e+001 5.500000e+000 7.500000e+000
    endloop
  endfacet
  facet normal -1.592909e-016 1.000000e+000 0.000000e+000
    outer loop
      vertex   -1.228760e+001 5.500000e+000 8.000000e+000
      vertex   -6.711774e+000 5.500000e+000 8.000000e+000
      vertex   -1.228760e+001 5.500000e+000 7.500000e+000
    endloop
  endfacet
  facet normal -1.592909e-016 1.000000e+000 0.000000e+000
    outer loop
      vertex   -1.228760e+001 5.500000e+000 7.500000e+000
      vertex   -6.711774e+000 5.500000e+000 8.000000e+000
      vertex   -6.711774e+000 5.500000e+000 7.500000e+000
    endloop
  endfacet
  facet normal 9.864006e-001 -1.643590e-001 0.000000e+000
    outer loop
      vertex   -5.587055e+000 1.225000e+001 8.000000e+000
      vertex   -6.502994e+000 6.752994e+000 8.000000e+000
      vertex   -5.587055e+000 1.225000e+001 7.500000e+000
    endloop
  endfacet
  facet normal 9.864006e-001 -1.643590e-001 0.000000e+000
    outer loop
      vertex   -5.587055e+000 1.225000e+001 7.500000e+000
      vertex   -6.502994e+000 6.752994e+000 8.000000e+000
      vertex   -6.502994e+000 6.752994e+000 7.500000e+000
    endloop
  endfacet
  facet normal -7.071068e-001 -7.071068e-001 0.000000e+000
    outer loop
      vertex   -6.502994e+000 6.752994e+000 8.000000e+000
      vertex   -6.750000e+000 7.000000e+000 8.000000e+000
      vertex   -6.502994e+000 6.752994e+000 7.500000e+000
    endloop
  endfacet
  facet normal -7.071068e-001 -7.071068e-001 -0.000000e+000
    outer loop
      vertex   -6.502994e+000 6.752994e+000 7.500000e+000
      vertex   -6.750000e+000 7.000000e+000 8.000000e+000
      vertex   -6.750000e+000 7.000000e+000 7.500000e+000
    endloop
  endfacet
  facet normal -0.000000e+000 -1.000000e+000 -0.000000e+000
    outer loop
      vertex   -6.750000e+000 7.000000e+000 8.000000e+000
      vertex   -1.203766e+001 7.000000e+000 8.000000e+000
      vertex   -6.750000e+000 7.000000e+000 7.500000e+000
    endloop
  endfacet
  facet normal -0.000000e+000 -1.000000e+000 -0.000000e+000
    outer loop
      vertex   -6.750000e+000 7.000000e+000 7.500000e+000
      vertex   -1.203766e+001 7.000000e+000 8.000000e+000
      vertex   -1.203766e+001 7.000000e+000 7.500000e+000
    endloop
  endfacet
  facet normal -9.864006e-001 1.643590e-001 0.000000e+000
    outer loop
      vertex   -1.203766e+001 7.000000e+000 8.000000e+000
      vertex   -1.116288e+001 1.225000e+001 8.000000e+000
      vertex   -1.203766e+001 7.000000e+000 7.500000e+000
    endloop
  endfacet
  facet normal -9.864006e-001 1.643590e-001 0.000000e+000
    outer loop
      vertex   -1.203766e+001 7.000000e+000 7.500000e+000
      vertex   -1.116288e+001 1.225000e+001 8.000000e+000
      vertex   -1.116288e+001 1.225000e+001 7.500000e+000
    endloop
  endfacet
  facet normal -3.185817e-016 1.000000e+000 0.000000e+000
    outer loop
      vertex   -1.116288e+001 1.225000e+001 8.000000e+000
      vertex   -5.587055e+000 1.225000e+001 8.000000e+000
      vertex   -1.116288e+001 1.225000e+001 7.500000e+000
    endloop
  endfacet
  facet normal -3.185817e-016 1.000000e+000 0.000000e+000
    outer loop
      vertex   -1.116288e+001 1.225000e+001 7.500000e+000
      vertex   -5.587055e+000 1.225000e+001 8.000000e+000
      vertex   -5.587055e+000 1.225000e+001 7.500000e+000
    endloop
  endfacet
  facet normal 5.812712e-001 -8.137099e-001 0.000000e+000
    outer loop
      vertex   -1.178458e+001 1.308206e+001 8.000000e+000
      vertex   -1.264765e+001 1.246553e+001 8.000000e+000
      vertex   -1.178458e+001 1.308206e+001 7.500000e+000
    endloop
  endfacet
  facet normal 5.812712e-001 -8.137099e-001 0.000000e+000
    outer loop
      vertex   -1.178458e+001 1.308206e+001 7.500000e+000
      vertex   -1.264765e+001 1.246553e+001 8.000000e+000
      vertex   -1.264765e+001 1.246553e+001 7.500000e+000
    endloop
  endfacet
  facet normal 9.864006e-001 -1.643590e-001 0.000000e+000
    outer loop
      vertex   -1.264765e+001 1.246553e+001 8.000000e+000
      vertex   -1.355163e+001 7.040322e+000 8.000000e+000
      vertex   -1.264765e+001 1.246553e+001 7.500000e+000
    endloop
  endfacet
  facet normal 9.864006e-001 -1.643590e-001 0.000000e+000
    outer loop
      vertex   -1.264765e+001 1.246553e+001 7.500000e+000
      vertex   -1.355163e+001 7.040322e+000 8.000000e+000
      vertex   -1.355163e+001 7.040322e+000 7.500000e+000
    endloop
  endfacet
  facet normal 8.137099e-001 5.812712e-001 0.000000e+000
    outer loop
      vertex   -1.355163e+001 7.040322e+000 8.000000e+000
      vertex   -1.299245e+001 6.257547e+000 8.000000e+000
      vertex   -1.355163e+001 7.040322e+000 7.500000e+000
    endloop
  endfacet
  facet normal 8.137099e-001 5.812712e-001 0.000000e+000
    outer loop
      vertex   -1.355163e+001 7.040322e+000 7.500000e+000
      vertex   -1.299245e+001 6.257547e+000 8.000000e+000
      vertex   -1.299245e+001 6.257547e+000 7.500000e+000
    endloop
  endfacet
  facet normal 7.071068e-001 -7.071068e-001 0.000000e+000
    outer loop
      vertex   -1.300000e+001 6.250000e+000 8.000000e+000
      vertex   -1.300000e+001 6.250000e+000 7.500000e+000
      vertex   -1.299245e+001 6.257547e+000 8.000000e+000
    endloop
  endfacet
  facet normal 7.071068e-001 -7.071068e-001 0.000000e+000
    outer loop
      vertex   -1.299245e+001 6.257547e+000 8.000000e+000
      vertex   -1.300000e+001 6.250000e+000 7.500000e+000
      vertex   -1.299245e+001 6.257547e+000 7.500000e+000
    endloop
  endfacet
  facet normal 1.000000e+000 0.000000e+000 0.000000e+000
    outer loop
      vertex   -1.300000e+001 6.250000e+000 8.000000e+000
      vertex   -1.300000e+001 6.130887e+000 8.000000e+000
      vertex   -1.300000e+001 6.250000e+000 7.500000e+000
    endloop
  endfacet
  facet normal 1.000000e+000 0.000000e+000 0.000000e+000
    outer loop
      vertex   -1.300000e+001 6.250000e+000 7.500000e+000
      vertex   -1.300000e+001 6.130887e+000 8.000000e+000
      vertex   -1.300000e+001 6.130887e+000 7.500000e+000
    endloop
  endfacet
  facet normal 5.812712e-001 -8.137099e-001 0.000000e+000
    outer loop
      vertex   -1.300000e+001 6.130887e+000 8.000000e+000
      vertex   -1.379816e+001 5.560721e+000 8.000000e+000
      vertex   -1.300000e+001 6.130887e+000 7.500000e+000
    endloop
  endfacet
  facet normal 5.812712e-001 -8.137099e-001 0.000000e+000
    outer loop
      vertex   -1.300000e+001 6.130887e+000 7.500000e+000
      vertex   -1.379816e+001 5.560721e+000 8.000000e+000
      vertex   -1.379816e+001 5.560721e+000 7.500000e+000
    endloop
  endfacet
  facet normal 9.864006e-001 -1.643590e-001 0.000000e+000
    outer loop
      vertex   -1.379816e+001 5.560721e+000 8.000000e+000
      vertex   -1.470214e+001 1.355177e-001 8.000000e+000
      vertex   -1.379816e+001 5.560721e+000 7.500000e+000
    endloop
  endfacet
  facet normal 9.864006e-001 -1.643590e-001 7.299006e-016
    outer loop
      vertex   -1.379816e+001 5.560721e+000 7.500000e+000
      vertex   -1.470214e+001 1.355177e-001 8.000000e+000
      vertex   -1.470214e+001 1.355177e-001 7.500000e+000
    endloop
  endfacet
  facet normal 8.137099e-001 5.812712e-001 -2.569151e-015
    outer loop
      vertex   -1.470214e+001 1.355177e-001 8.000000e+000
      vertex   -1.425000e+001 -4.974224e-001 8.000000e+000
      vertex   -1.470214e+001 1.355177e-001 7.500000e+000
    endloop
  endfacet
  facet normal 8.137099e-001 5.812712e-001 0.000000e+000
    outer loop
      vertex   -1.470214e+001 1.355177e-001 7.500000e+000
      vertex   -1.425000e+001 -4.974224e-001 8.000000e+000
      vertex   -1.425000e+001 -4.974224e-001 7.500000e+000
    endloop
  endfacet
  facet normal 1.000000e+000 -0.000000e+000 0.000000e+000
    outer loop
      vertex   -1.425000e+001 -5.000000e-001 8.000000e+000
      vertex   -1.425000e+001 -5.000000e-001 7.500000e+000
      vertex   -1.425000e+001 -4.974224e-001 8.000000e+000
    endloop
  endfacet
  facet normal 1.000000e+000 -0.000000e+000 0.000000e+000
    outer loop
      vertex   -1.425000e+001 -4.974224e-001 8.000000e+000
      vertex   -1.425000e+001 -5.000000e-001 7.500000e+000
      vertex   -1.425000e+001 -4.974224e-001 7.500000e+000
    endloop
  endfacet
  facet normal 7.071068e-001 7.071068e-001 0.000000e+000
    outer loop
      vertex   -1.424355e+001 -5.064458e-001 8.000000e+000
      vertex   -1.424355e+001 -5.064458e-001 7.500000e+000
      vertex   -1.425000e+001 -5.000000e-001 8.000000e+000
    endloop
  endfacet
  facet normal 7.071068e-001 7.071068e-001 0.000000e+000
    outer loop
      vertex   -1.425000e+001 -5.000000e-001 8.000000e+000
      vertex   -1.424355e+001 -5.064458e-001 7.500000e+000
      vertex   -1.425000e+001 -5.000000e-001 7.500000e+000
    endloop
  endfacet
  facet normal 8.137099e-001 5.812712e-001 0.000000e+000
    outer loop
      vertex   -1.424355e+001 -5.064458e-001 8.000000e+000
      vertex   -1.408561e+001 -7.275520e-001 8.000000e+000
      vertex   -1.424355e+001 -5.064458e-001 7.500000e+000
    endloop
  endfacet
  facet normal 8.137099e-001 5.812712e-001 0.000000e+000
    outer loop
      vertex   -1.424355e+001 -5.064458e-001 7.500000e+000
      vertex   -1.408561e+001 -7.275520e-001 8.000000e+000
      vertex   -1.408561e+001 -7.275520e-001 7.500000e+000
    endloop
  endfacet
  facet normal 1.643590e-001 9.864006e-001 0.000000e+000
    outer loop
      vertex   -1.408561e+001 -7.275520e-001 8.000000e+000
      vertex   -1.400982e+001 -7.401801e-001 8.000000e+000
      vertex   -1.408561e+001 -7.275520e-001 7.500000e+000
    endloop
  endfacet
  facet normal 1.643590e-001 9.864006e-001 4.380499e-015
    outer loop
      vertex   -1.408561e+001 -7.275520e-001 7.500000e+000
      vertex   -1.400982e+001 -7.401801e-001 8.000000e+000
      vertex   -1.400982e+001 -7.401801e-001 7.500000e+000
    endloop
  endfacet
  facet normal 7.071068e-001 7.071068e-001 3.233685e-015
    outer loop
      vertex   -1.400982e+001 -7.401801e-001 8.000000e+000
      vertex   -1.350000e+001 -1.250000e+000 8.000000e+000
      vertex   -1.400982e+001 -7.401801e-001 7.500000e+000
    endloop
  endfacet
  facet normal 7.071068e-001 7.071068e-001 0.000000e+000
    outer loop
      vertex   -1.400982e+001 -7.401801e-001 7.500000e+000
      vertex   -1.350000e+001 -1.250000e+000 8.000000e+000
      vertex   -1.350000e+001 -1.250000e+000 7.500000e+000
    endloop
  endfacet
  facet normal -8.074349e-016 1.000000e+000 0.000000e+000
    outer loop
      vertex   -1.350000e+001 -1.250000e+000 8.000000e+000
      vertex   -8.000000e+000 -1.250000e+000 8.000000e+000
      vertex   -1.350000e+001 -1.250000e+000 7.500000e+000
    endloop
  endfacet
  facet normal -8.074349e-016 1.000000e+000 0.000000e+000
    outer loop
      vertex   -1.350000e+001 -1.250000e+000 7.500000e+000
      vertex   -8.000000e+000 -1.250000e+000 8.000000e+000
      vertex   -8.000000e+000 -1.250000e+000 7.500000e+000
    endloop
  endfacet
  facet normal -7.071068e-001 7.071068e-001 0.000000e+000
    outer loop
      vertex   -8.000000e+000 -1.250000e+000 8.000000e+000
      vertex   -7.378568e+000 -6.285682e-001 8.000000e+000
      vertex   -8.000000e+000 -1.250000e+000 7.500000e+000
    endloop
  endfacet
  facet normal -7.071068e-001 7.071068e-001 0.000000e+000
    outer loop
      vertex   -8.000000e+000 -1.250000e+000 7.500000e+000
      vertex   -7.378568e+000 -6.285682e-001 8.000000e+000
      vertex   -7.378568e+000 -6.285682e-001 7.500000e+000
    endloop
  endfacet
  facet normal 1.643590e-001 9.864006e-001 0.000000e+000
    outer loop
      vertex   -7.378568e+000 -6.285682e-001 8.000000e+000
      vertex   -6.983573e+000 -6.943843e-001 8.000000e+000
      vertex   -7.378568e+000 -6.285682e-001 7.500000e+000
    endloop
  endfacet
  facet normal 1.643590e-001 9.864006e-001 0.000000e+000
    outer loop
      vertex   -7.378568e+000 -6.285682e-001 7.500000e+000
      vertex   -6.983573e+000 -6.943843e-001 8.000000e+000
      vertex   -6.983573e+000 -6.943843e-001 7.500000e+000
    endloop
  endfacet
  facet normal -5.812712e-001 8.137099e-001 0.000000e+000
    outer loop
      vertex   -6.983573e+000 -6.943843e-001 8.000000e+000
      vertex   -6.120503e+000 -7.785312e-002 8.000000e+000
      vertex   -6.983573e+000 -6.943843e-001 7.500000e+000
    endloop
  endfacet
  facet normal -5.812712e-001 8.137099e-001 0.000000e+000
    outer loop
      vertex   -6.983573e+000 -6.943843e-001 7.500000e+000
      vertex   -6.120503e+000 -7.785312e-002 8.000000e+000
      vertex   -6.120503e+000 -7.785312e-002 7.500000e+000
    endloop
  endfacet
  facet normal -9.864006e-001 1.643590e-001 0.000000e+000
    outer loop
      vertex   -6.120503e+000 -7.785312e-002 8.000000e+000
      vertex   -5.216529e+000 5.347350e+000 8.000000e+000
      vertex   -6.120503e+000 -7.785312e-002 7.500000e+000
    endloop
  endfacet
  facet normal -9.864006e-001 1.643590e-001 5.256598e-015
    outer loop
      vertex   -6.120503e+000 -7.785312e-002 7.500000e+000
      vertex   -5.216529e+000 5.347350e+000 8.000000e+000
      vertex   -5.216529e+000 5.347350e+000 7.500000e+000
    endloop
  endfacet
  facet normal -8.137099e-001 -5.812712e-001 4.396259e-015
    outer loop
      vertex   -5.216529e+000 5.347350e+000 8.000000e+000
      vertex   -5.833060e+000 6.210420e+000 8.000000e+000
      vertex   -5.216529e+000 5.347350e+000 7.500000e+000
    endloop
  endfacet
  facet normal -8.137099e-001 -5.812712e-001 4.336318e-015
    outer loop
      vertex   -5.216529e+000 5.347350e+000 7.500000e+000
      vertex   -5.833060e+000 6.210420e+000 8.000000e+000
      vertex   -5.833060e+000 6.210420e+000 7.500000e+000
    endloop
  endfacet
  facet normal -5.812712e-001 8.137099e-001 2.930839e-015
    outer loop
      vertex   -5.833060e+000 6.210420e+000 8.000000e+000
      vertex   -4.969990e+000 6.826951e+000 8.000000e+000
      vertex   -5.833060e+000 6.210420e+000 7.500000e+000
    endloop
  endfacet
  facet normal -5.812712e-001 8.137099e-001 0.000000e+000
    outer loop
      vertex   -5.833060e+000 6.210420e+000 7.500000e+000
      vertex   -4.969990e+000 6.826951e+000 8.000000e+000
      vertex   -4.969990e+000 6.826951e+000 7.500000e+000
    endloop
  endfacet
  facet normal -9.864006e-001 1.643590e-001 0.000000e+000
    outer loop
      vertex   -4.969990e+000 6.826951e+000 8.000000e+000
      vertex   -4.066015e+000 1.225215e+001 8.000000e+000
      vertex   -4.969990e+000 6.826951e+000 7.500000e+000
    endloop
  endfacet
  facet normal -9.864006e-001 1.643590e-001 0.000000e+000
    outer loop
      vertex   -4.969990e+000 6.826951e+000 7.500000e+000
      vertex   -4.066015e+000 1.225215e+001 8.000000e+000
      vertex   -4.066015e+000 1.225215e+001 7.500000e+000
    endloop
  endfacet
  facet normal -8.137099e-001 -5.812712e-001 0.000000e+000
    outer loop
      vertex   -4.066015e+000 1.225215e+001 8.000000e+000
      vertex   -4.682547e+000 1.311522e+001 8.000000e+000
      vertex   -4.066015e+000 1.225215e+001 7.500000e+000
    endloop
  endfacet
  facet normal -8.137099e-001 -5.812712e-001 -0.000000e+000
    outer loop
      vertex   -4.066015e+000 1.225215e+001 7.500000e+000
      vertex   -4.682547e+000 1.311522e+001 8.000000e+000
      vertex   -4.682547e+000 1.311522e+001 7.500000e+000
    endloop
  endfacet
  facet normal -1.643590e-001 -9.864006e-001 0.000000e+000
    outer loop
      vertex   -4.682547e+000 1.311522e+001 8.000000e+000
      vertex   -4.901748e+000 1.315175e+001 8.000000e+000
      vertex   -4.682547e+000 1.311522e+001 7.500000e+000
    endloop
  endfacet
  facet normal -1.643590e-001 -9.864006e-001 -0.000000e+000
    outer loop
      vertex   -4.682547e+000 1.311522e+001 7.500000e+000
      vertex   -4.901748e+000 1.315175e+001 8.000000e+000
      vertex   -4.901748e+000 1.315175e+001 7.500000e+000
    endloop
  endfacet
  facet normal -7.071068e-001 -7.071068e-001 0.000000e+000
    outer loop
      vertex   -4.901748e+000 1.315175e+001 8.000000e+000
      vertex   -5.500000e+000 1.375000e+001 8.000000e+000
      vertex   -4.901748e+000 1.315175e+001 7.500000e+000
    endloop
  endfacet
  facet normal -7.071068e-001 -7.071068e-001 -0.000000e+000
    outer loop
      vertex   -4.901748e+000 1.315175e+001 7.500000e+000
      vertex   -5.500000e+000 1.375000e+001 8.000000e+000
      vertex   -5.500000e+000 1.375000e+001 7.500000e+000
    endloop
  endfacet
  facet normal -0.000000e+000 -1.000000e+000 -0.000000e+000
    outer loop
      vertex   -5.500000e+000 1.375000e+001 8.000000e+000
      vertex   -1.100000e+001 1.375000e+001 8.000000e+000
      vertex   -5.500000e+000 1.375000e+001 7.500000e+000
    endloop
  endfacet
  facet normal -0.000000e+000 -1.000000e+000 -0.000000e+000
    outer loop
      vertex   -5.500000e+000 1.375000e+001 7.500000e+000
      vertex   -1.100000e+001 1.375000e+001 8.000000e+000
      vertex   -1.100000e+001 1.375000e+001 7.500000e+000
    endloop
  endfacet
  facet normal 7.071068e-001 -7.071068e-001 0.000000e+000
    outer loop
      vertex   -1.100000e+001 1.375000e+001 8.000000e+000
      vertex   -1.168460e+001 1.306540e+001 8.000000e+000
      vertex   -1.100000e+001 1.375000e+001 7.500000e+000
    endloop
  endfacet
  facet normal 7.071068e-001 -7.071068e-001 0.000000e+000
    outer loop
      vertex   -1.100000e+001 1.375000e+001 7.500000e+000
      vertex   -1.168460e+001 1.306540e+001 8.000000e+000
      vertex   -1.168460e+001 1.306540e+001 7.500000e+000
    endloop
  endfacet
  facet normal -1.643590e-001 -9.864006e-001 0.000000e+000
    outer loop
      vertex   -1.168460e+001 1.306540e+001 8.000000e+000
      vertex   -1.178458e+001 1.308206e+001 8.000000e+000
      vertex   -1.168460e+001 1.306540e+001 7.500000e+000
    endloop
  endfacet
  facet normal -1.643590e-001 -9.864006e-001 -0.000000e+000
    outer loop
      vertex   -1.168460e+001 1.306540e+001 7.500000e+000
      vertex   -1.178458e+001 1.308206e+001 8.000000e+000
      vertex   -1.178458e+001 1.308206e+001 7.500000e+000
    endloop
  endfacet
  facet normal 0.000000e+000 0.000000e+000 1.000000e+000
    outer loop
      vertex   -1.100000e+001 1.375000e+001 7.500000e+000
      vertex   -1.168460e+001 1.306540e+001 7.500000e+000
      vertex   -1.116288e+001 1.225000e+001 7.500000e+000
    endloop
  endfacet
  facet normal 0.000000e+000 0.000000e+000 1.000000e+000
    outer loop
      vertex   -5.587055e+000 1.225000e+001 7.500000e+000
      vertex   -1.100000e+001 1.375000e+001 7.500000e+000
      vertex   -1.116288e+001 1.225000e+001 7.500000e+000
    endloop
  endfacet
  facet normal 0.000000e+000 -0.000000e+000 1.000000e+000
    outer loop
      vertex   -5.587055e+000 1.225000e+001 7.500000e+000
      vertex   -5.500000e+000 1.375000e+001 7.500000e+000
      vertex   -1.100000e+001 1.375000e+001 7.500000e+000
    endloop
  endfacet
  facet normal 0.000000e+000 -0.000000e+000 1.000000e+000
    outer loop
      vertex   -5.587055e+000 1.225000e+001 7.500000e+000
      vertex   -4.901748e+000 1.315175e+001 7.500000e+000
      vertex   -5.500000e+000 1.375000e+001 7.500000e+000
    endloop
  endfacet
  facet normal 0.000000e+000 -0.000000e+000 1.000000e+000
    outer loop
      vertex   -5.587055e+000 1.225000e+001 7.500000e+000
      vertex   -4.682547e+000 1.311522e+001 7.500000e+000
      vertex   -4.901748e+000 1.315175e+001 7.500000e+000
    endloop
  endfacet
  facet normal 0.000000e+000 -0.000000e+000 1.000000e+000
    outer loop
      vertex   -5.587055e+000 1.225000e+001 7.500000e+000
      vertex   -4.066015e+000 1.225215e+001 7.500000e+000
      vertex   -4.682547e+000 1.311522e+001 7.500000e+000
    endloop
  endfacet
  facet normal -2.319178e-019 1.637520e-016 1.000000e+000
    outer loop
      vertex   -5.587055e+000 1.225000e+001 7.500000e+000
      vertex   -4.969990e+000 6.826951e+000 7.500000e+000
      vertex   -4.066015e+000 1.225215e+001 7.500000e+000
    endloop
  endfacet
  facet normal -7.858106e-018 1.628843e-016 1.000000e+000
    outer loop
      vertex   -5.587055e+000 1.225000e+001 7.500000e+000
      vertex   -6.502994e+000 6.752994e+000 7.500000e+000
      vertex   -4.969990e+000 6.826951e+000 7.500000e+000
    endloop
  endfacet
  facet normal 0.000000e+000 0.000000e+000 1.000000e+000
    outer loop
      vertex   -4.969990e+000 6.826951e+000 7.500000e+000
      vertex   -6.502994e+000 6.752994e+000 7.500000e+000
      vertex   -5.833060e+000 6.210420e+000 7.500000e+000
    endloop
  endfacet
  facet normal 0.000000e+000 0.000000e+000 1.000000e+000
    outer loop
      vertex   -5.833060e+000 6.210420e+000 7.500000e+000
      vertex   -6.502994e+000 6.752994e+000 7.500000e+000
      vertex   -6.711774e+000 5.500000e+000 7.500000e+000
    endloop
  endfacet
  facet normal 0.000000e+000 0.000000e+000 1.000000e+000
    outer loop
      vertex   -5.216529e+000 5.347350e+000 7.500000e+000
      vertex   -6.711774e+000 5.500000e+000 7.500000e+000
      vertex   -6.120503e+000 -7.785312e-002 7.500000e+000
    endloop
  endfacet
  facet normal 0.000000e+000 0.000000e+000 1.000000e+000
    outer loop
      vertex   -5.216529e+000 5.347350e+000 7.500000e+000
      vertex   -5.833060e+000 6.210420e+000 7.500000e+000
      vertex   -6.711774e+000 5.500000e+000 7.500000e+000
    endloop
  endfacet
  facet normal 0.000000e+000 0.000000e+000 1.000000e+000
    outer loop
      vertex   -1.168460e+001 1.306540e+001 7.500000e+000
      vertex   -1.178458e+001 1.308206e+001 7.500000e+000
      vertex   -1.116288e+001 1.225000e+001 7.500000e+000
    endloop
  endfacet
  facet normal 0.000000e+000 0.000000e+000 1.000000e+000
    outer loop
      vertex   -1.116288e+001 1.225000e+001 7.500000e+000
      vertex   -1.178458e+001 1.308206e+001 7.500000e+000
      vertex   -1.264765e+001 1.246553e+001 7.500000e+000
    endloop
  endfacet
  facet normal 4.340969e-018 1.629901e-016 1.000000e+000
    outer loop
      vertex   -1.203766e+001 7.000000e+000 7.500000e+000
      vertex   -1.264765e+001 1.246553e+001 7.500000e+000
      vertex   -1.355163e+001 7.040322e+000 7.500000e+000
    endloop
  endfacet
  facet normal 0.000000e+000 -0.000000e+000 1.000000e+000
    outer loop
      vertex   -1.299245e+001 6.257547e+000 7.500000e+000
      vertex   -1.203766e+001 7.000000e+000 7.500000e+000
      vertex   -1.355163e+001 7.040322e+000 7.500000e+000
    endloop
  endfacet
  facet normal -0.000000e+000 0.000000e+000 1.000000e+000
    outer loop
      vertex   -1.299245e+001 6.257547e+000 7.500000e+000
      vertex   -1.228760e+001 5.500000e+000 7.500000e+000
      vertex   -1.203766e+001 7.000000e+000 7.500000e+000
    endloop
  endfacet
  facet normal 0.000000e+000 0.000000e+000 1.000000e+000
    outer loop
      vertex   -1.299245e+001 6.257547e+000 7.500000e+000
      vertex   -1.300000e+001 6.130887e+000 7.500000e+000
      vertex   -1.228760e+001 5.500000e+000 7.500000e+000
    endloop
  endfacet
  facet normal 0.000000e+000 0.000000e+000 1.000000e+000
    outer loop
      vertex   -1.299245e+001 6.257547e+000 7.500000e+000
      vertex   -1.300000e+001 6.250000e+000 7.500000e+000
      vertex   -1.300000e+001 6.130887e+000 7.500000e+000
    endloop
  endfacet
  facet normal 2.397733e-017 1.651816e-016 1.000000e+000
    outer loop
      vertex   -1.116288e+001 1.225000e+001 7.500000e+000
      vertex   -1.264765e+001 1.246553e+001 7.500000e+000
      vertex   -1.203766e+001 7.000000e+000 7.500000e+000
    endloop
  endfacet
  facet normal 0.000000e+000 0.000000e+000 1.000000e+000
    outer loop
      vertex   -1.300000e+001 6.130887e+000 7.500000e+000
      vertex   -1.379816e+001 5.560721e+000 7.500000e+000
      vertex   -1.228760e+001 5.500000e+000 7.500000e+000
    endloop
  endfacet
  facet normal 0.000000e+000 0.000000e+000 1.000000e+000
    outer loop
      vertex   -1.228760e+001 5.500000e+000 7.500000e+000
      vertex   -1.379816e+001 5.560721e+000 7.500000e+000
      vertex   -1.316238e+001 2.500000e-001 7.500000e+000
    endloop
  endfacet
  facet normal 0.000000e+000 0.000000e+000 1.000000e+000
    outer loop
      vertex   -1.316238e+001 2.500000e-001 7.500000e+000
      vertex   -1.379816e+001 5.560721e+000 7.500000e+000
      vertex   -1.470214e+001 1.355177e-001 7.500000e+000
    endloop
  endfacet
  facet normal 0.000000e+000 -0.000000e+000 1.000000e+000
    outer loop
      vertex   -1.425000e+001 -4.974224e-001 7.500000e+000
      vertex   -1.316238e+001 2.500000e-001 7.500000e+000
      vertex   -1.470214e+001 1.355177e-001 7.500000e+000
    endloop
  endfacet
  facet normal -0.000000e+000 0.000000e+000 1.000000e+000
    outer loop
      vertex   -1.425000e+001 -4.974224e-001 7.500000e+000
      vertex   -1.424355e+001 -5.064458e-001 7.500000e+000
      vertex   -1.316238e+001 2.500000e-001 7.500000e+000
    endloop
  endfacet
  facet normal 0.000000e+000 0.000000e+000 1.000000e+000
    outer loop
      vertex   -1.425000e+001 -4.974224e-001 7.500000e+000
      vertex   -1.425000e+001 -5.000000e-001 7.500000e+000
      vertex   -1.424355e+001 -5.064458e-001 7.500000e+000
    endloop
  endfacet
  facet normal -0.000000e+000 -0.000000e+000 1.000000e+000
    outer loop
      vertex   -1.408561e+001 -7.275520e-001 7.500000e+000
      vertex   -1.400982e+001 -7.401801e-001 7.500000e+000
      vertex   -1.424355e+001 -5.064458e-001 7.500000e+000
    endloop
  endfacet
  facet normal -0.000000e+000 0.000000e+000 1.000000e+000
    outer loop
      vertex   -1.424355e+001 -5.064458e-001 7.500000e+000
      vertex   -1.400982e+001 -7.401801e-001 7.500000e+000
      vertex   -1.316238e+001 2.500000e-001 7.500000e+000
    endloop
  endfacet
  facet normal 0.000000e+000 0.000000e+000 1.000000e+000
    outer loop
      vertex   -1.316238e+001 2.500000e-001 7.500000e+000
      vertex   -1.400982e+001 -7.401801e-001 7.500000e+000
      vertex   -1.350000e+001 -1.250000e+000 7.500000e+000
    endloop
  endfacet
  facet normal 0.000000e+000 0.000000e+000 1.000000e+000
    outer loop
      vertex   -8.000000e+000 -1.250000e+000 7.500000e+000
      vertex   -1.316238e+001 2.500000e-001 7.500000e+000
      vertex   -1.350000e+001 -1.250000e+000 7.500000e+000
    endloop
  endfacet
  facet normal 0.000000e+000 -0.000000e+000 1.000000e+000
    outer loop
      vertex   -8.000000e+000 -1.250000e+000 7.500000e+000
      vertex   -7.586555e+000 2.500000e-001 7.500000e+000
      vertex   -1.316238e+001 2.500000e-001 7.500000e+000
    endloop
  endfacet
  facet normal 0.000000e+000 -0.000000e+000 1.000000e+000
    outer loop
      vertex   -8.000000e+000 -1.250000e+000 7.500000e+000
      vertex   -7.378568e+000 -6.285682e-001 7.500000e+000
      vertex   -7.586555e+000 2.500000e-001 7.500000e+000
    endloop
  endfacet
  facet normal 0.000000e+000 0.000000e+000 1.000000e+000
    outer loop
      vertex   -7.586555e+000 2.500000e-001 7.500000e+000
      vertex   -7.378568e+000 -6.285682e-001 7.500000e+000
      vertex   -6.983573e+000 -6.943843e-001 7.500000e+000
    endloop
  endfacet
  facet normal 0.000000e+000 0.000000e+000 1.000000e+000
    outer loop
      vertex   -6.120503e+000 -7.785312e-002 7.500000e+000
      vertex   -7.586555e+000 2.500000e-001 7.500000e+000
      vertex   -6.983573e+000 -6.943843e-001 7.500000e+000
    endloop
  endfacet
  facet normal 0.000000e+000 0.000000e+000 1.000000e+000
    outer loop
      vertex   -6.120503e+000 -7.785312e-002 7.500000e+000
      vertex   -6.711774e+000 5.500000e+000 7.500000e+000
      vertex   -7.586555e+000 2.500000e-001 7.500000e+000
    endloop
  endfacet
  facet normal 0.000000e+000 0.000000e+000 1.000000e+000
    outer loop
      vertex   -6.502994e+000 6.752994e+000 7.500000e+000
      vertex   -6.750000e+000 7.000000e+000 7.500000e+000
      vertex   -6.711774e+000 5.500000e+000 7.500000e+000
    endloop
  endfacet
  facet normal 0.000000e+000 0.000000e+000 1.000000e+000
    outer loop
      vertex   -6.711774e+000 5.500000e+000 7.500000e+000
      vertex   -6.750000e+000 7.000000e+000 7.500000e+000
      vertex   -1.203766e+001 7.000000e+000 7.500000e+000
    endloop
  endfacet
  facet normal 0.000000e+000 -0.000000e+000 1.000000e+000
    outer loop
      vertex   -1.228760e+001 5.500000e+000 7.500000e+000
      vertex   -6.711774e+000 5.500000e+000 7.500000e+000
      vertex   -1.203766e+001 7.000000e+000 7.500000e+000
    endloop
  endfacet
  facet normal 0.000000e+000 0.000000e+000 1.000000e+000
    outer loop
      vertex   -4.163176e+000 -1.242404e+000 8.000000e+000
      vertex   -4.250000e+000 -1.250000e+000 8.000000e+000
      vertex   -3.250000e+000 -3.250000e+000 8.000000e+000
    endloop
  endfacet
  facet normal -0.000000e+000 -0.000000e+000 1.000000e+000
    outer loop
      vertex   -4.078990e+000 -1.219846e+000 8.000000e+000
      vertex   -3.250000e+000 -3.250000e+000 8.000000e+000
      vertex   -4.000000e+000 -1.183013e+000 8.000000e+000
    endloop
  endfacet
  facet normal 0.000000e+000 0.000000e+000 1.000000e+000
    outer loop
      vertex   -4.078990e+000 -1.219846e+000 8.000000e+000
      vertex   -4.163176e+000 -1.242404e+000 8.000000e+000
      vertex   -3.250000e+000 -3.250000e+000 8.000000e+000
    endloop
  endfacet
  facet normal 0.000000e+000 0.000000e+000 1.000000e+000
    outer loop
      vertex   -4.250000e+000 -1.250000e+000 8.000000e+000
      vertex   -4.336824e+000 -1.242404e+000 8.000000e+000
      vertex   -3.250000e+000 -3.250000e+000 8.000000e+000
    endloop
  endfacet
  facet normal 0.000000e+000 0.000000e+000 1.000000e+000
    outer loop
      vertex   -3.250000e+000 -3.250000e+000 8.000000e+000
      vertex   -4.336824e+000 -1.242404e+000 8.000000e+000
      vertex   -4.421010e+000 -1.219846e+000 8.000000e+000
    endloop
  endfacet
  facet normal -0.000000e+000 -0.000000e+000 1.000000e+000
    outer loop
      vertex   -4.500000e+000 -1.183013e+000 8.000000e+000
      vertex   -3.250000e+000 -3.250000e+000 8.000000e+000
      vertex   -4.421010e+000 -1.219846e+000 8.000000e+000
    endloop
  endfacet
  facet normal 0.000000e+000 0.000000e+000 1.000000e+000
    outer loop
      vertex   -4.500000e+000 -1.183013e+000 8.000000e+000
      vertex   -4.571394e+000 -1.133022e+000 8.000000e+000
      vertex   -3.250000e+000 -3.250000e+000 8.000000e+000
    endloop
  endfacet
  facet normal 0.000000e+000 0.000000e+000 1.000000e+000
    outer loop
      vertex   -3.250000e+000 -3.250000e+000 8.000000e+000
      vertex   -4.571394e+000 -1.133022e+000 8.000000e+000
      vertex   -6.983573e+000 -6.943843e-001 8.000000e+000
    endloop
  endfacet
  facet normal 0.000000e+000 -0.000000e+000 1.000000e+000
    outer loop
      vertex   -8.000000e+000 -1.250000e+000 8.000000e+000
      vertex   -6.983573e+000 -6.943843e-001 8.000000e+000
      vertex   -7.378568e+000 -6.285682e-001 8.000000e+000
    endloop
  endfacet
  facet normal -0.000000e+000 -0.000000e+000 1.000000e+000
    outer loop
      vertex   -8.000000e+000 -1.250000e+000 8.000000e+000
      vertex   -3.250000e+000 -3.250000e+000 8.000000e+000
      vertex   -6.983573e+000 -6.943843e-001 8.000000e+000
    endloop
  endfacet
  facet normal -0.000000e+000 0.000000e+000 1.000000e+000
    outer loop
      vertex   -8.000000e+000 -1.250000e+000 8.000000e+000
      vertex   -1.575000e+001 -3.250000e+000 8.000000e+000
      vertex   -3.250000e+000 -3.250000e+000 8.000000e+000
    endloop
  endfacet
  facet normal 0.000000e+000 0.000000e+000 1.000000e+000
    outer loop
      vertex   -8.000000e+000 -1.250000e+000 8.000000e+000
      vertex   -1.350000e+001 -1.250000e+000 8.000000e+000
      vertex   -1.575000e+001 -3.250000e+000 8.000000e+000
    endloop
  endfacet
  facet normal 0.000000e+000 -0.000000e+000 1.000000e+000
    outer loop
      vertex   -1.575000e+001 -3.250000e+000 8.000000e+000
      vertex   -1.350000e+001 -1.250000e+000 8.000000e+000
      vertex   -1.408561e+001 -7.275520e-001 8.000000e+000
    endloop
  endfacet
  facet normal -0.000000e+000 -0.000000e+000 1.000000e+000
    outer loop
      vertex   -1.425000e+001 -5.000000e-001 8.000000e+000
      vertex   -1.408561e+001 -7.275520e-001 8.000000e+000
      vertex   -1.424355e+001 -5.064458e-001 8.000000e+000
    endloop
  endfacet
  facet normal -0.000000e+000 0.000000e+000 1.000000e+000
    outer loop
      vertex   -1.425000e+001 -5.000000e-001 8.000000e+000
      vertex   -1.575000e+001 -3.250000e+000 8.000000e+000
      vertex   -1.408561e+001 -7.275520e-001 8.000000e+000
    endloop
  endfacet
  facet normal 0.000000e+000 0.000000e+000 1.000000e+000
    outer loop
      vertex   -1.425000e+001 -5.000000e-001 8.000000e+000
      vertex   -1.470214e+001 1.355177e-001 8.000000e+000
      vertex   -1.575000e+001 -3.250000e+000 8.000000e+000
    endloop
  endfacet
  facet normal 0.000000e+000 -0.000000e+000 1.000000e+000
    outer loop
      vertex   -1.425000e+001 -5.000000e-001 8.000000e+000
      vertex   -1.425000e+001 -4.974224e-001 8.000000e+000
      vertex   -1.470214e+001 1.355177e-001 8.000000e+000
    endloop
  endfacet
  facet normal 0.000000e+000 0.000000e+000 1.000000e+000
    outer loop
      vertex   -4.571394e+000 -1.133022e+000 8.000000e+000
      vertex   -4.633022e+000 -1.071394e+000 8.000000e+000
      vertex   -6.983573e+000 -6.943843e-001 8.000000e+000
    endloop
  endfacet
  facet normal -0.000000e+000 -0.000000e+000 1.000000e+000
    outer loop
      vertex   -6.983573e+000 -6.943843e-001 8.000000e+000
      vertex   -4.633022e+000 -1.071394e+000 8.000000e+000
      vertex   -4.683013e+000 -1.000000e+000 8.000000e+000
    endloop
  endfacet
  facet normal -0.000000e+000 -0.000000e+000 1.000000e+000
    outer loop
      vertex   -6.120503e+000 -7.785312e-002 8.000000e+000
      vertex   -4.683013e+000 -1.000000e+000 8.000000e+000
      vertex   -4.719846e+000 -9.210101e-001 8.000000e+000
    endloop
  endfacet
  facet normal 0.000000e+000 0.000000e+000 1.000000e+000
    outer loop
      vertex   -4.742404e+000 -8.368241e-001 8.000000e+000
      vertex   -6.120503e+000 -7.785312e-002 8.000000e+000
      vertex   -4.719846e+000 -9.210101e-001 8.000000e+000
    endloop
  endfacet
  facet normal 0.000000e+000 0.000000e+000 1.000000e+000
    outer loop
      vertex   -4.742404e+000 -8.368241e-001 8.000000e+000
      vertex   -4.750000e+000 -7.500000e-001 8.000000e+000
      vertex   -6.120503e+000 -7.785312e-002 8.000000e+000
    endloop
  endfacet
  facet normal -0.000000e+000 0.000000e+000 1.000000e+000
    outer loop
      vertex   -6.120503e+000 -7.785312e-002 8.000000e+000
      vertex   -4.750000e+000 -7.500000e-001 8.000000e+000
      vertex   -4.742404e+000 -6.631759e-001 8.000000e+000
    endloop
  endfacet
  facet normal 0.000000e+000 0.000000e+000 1.000000e+000
    outer loop
      vertex   -4.719846e+000 -5.789899e-001 8.000000e+000
      vertex   -6.120503e+000 -7.785312e-002 8.000000e+000
      vertex   -4.742404e+000 -6.631759e-001 8.000000e+000
    endloop
  endfacet
  facet normal 0.000000e+000 -0.000000e+000 1.000000e+000
    outer loop
      vertex   -4.719846e+000 -5.789899e-001 8.000000e+000
      vertex   -4.683013e+000 -5.000000e-001 8.000000e+000
      vertex   -6.120503e+000 -7.785312e-002 8.000000e+000
    endloop
  endfacet
  facet normal -0.000000e+000 0.000000e+000 1.000000e+000
    outer loop
      vertex   -6.120503e+000 -7.785312e-002 8.000000e+000
      vertex   -4.683013e+000 -5.000000e-001 8.000000e+000
      vertex   -4.633022e+000 -4.286062e-001 8.000000e+000
    endloop
  endfacet
  facet normal 0.000000e+000 0.000000e+000 1.000000e+000
    outer loop
      vertex   -4.571394e+000 -3.669778e-001 8.000000e+000
      vertex   -6.120503e+000 -7.785312e-002 8.000000e+000
      vertex   -4.633022e+000 -4.286062e-001 8.000000e+000
    endloop
  endfacet
  facet normal 0.000000e+000 -0.000000e+000 1.000000e+000
    outer loop
      vertex   -4.571394e+000 -3.669778e-001 8.000000e+000
      vertex   -4.500000e+000 -3.169873e-001 8.000000e+000
      vertex   -6.120503e+000 -7.785312e-002 8.000000e+000
    endloop
  endfacet
  facet normal 2.357906e-017 1.597845e-016 1.000000e+000
    outer loop
      vertex   -6.120503e+000 -7.785312e-002 8.000000e+000
      vertex   -4.500000e+000 -3.169873e-001 8.000000e+000
      vertex   -5.216529e+000 5.347350e+000 8.000000e+000
    endloop
  endfacet
  facet normal -6.904512e-017 1.480677e-016 1.000000e+000
    outer loop
      vertex   -5.216529e+000 5.347350e+000 8.000000e+000
      vertex   -4.500000e+000 -3.169873e-001 8.000000e+000
      vertex   -4.421010e+000 -2.801537e-001 8.000000e+000
    endloop
  endfacet
  facet normal -4.074652e-017 1.520681e-016 1.000000e+000
    outer loop
      vertex   -4.336824e+000 -2.575961e-001 8.000000e+000
      vertex   -5.216529e+000 5.347350e+000 8.000000e+000
      vertex   -4.421010e+000 -2.801537e-001 8.000000e+000
    endloop
  endfacet
  facet normal -1.367595e-017 1.563169e-016 1.000000e+000
    outer loop
      vertex   -4.336824e+000 -2.575961e-001 8.000000e+000
      vertex   -4.250000e+000 -2.500000e-001 8.000000e+000
      vertex   -5.216529e+000 5.347350e+000 8.000000e+000
    endloop
  endfacet
  facet normal 1.409550e-017 1.611123e-016 1.000000e+000
    outer loop
      vertex   -5.216529e+000 5.347350e+000 8.000000e+000
      vertex   -4.250000e+000 -2.500000e-001 8.000000e+000
      vertex   -4.163176e+000 -2.575961e-001 8.000000e+000
    endloop
  endfacet
  facet normal 4.471164e-017 1.668661e-016 1.000000e+000
    outer loop
      vertex   -4.078990e+000 -2.801537e-001 8.000000e+000
      vertex   -5.216529e+000 5.347350e+000 8.000000e+000
      vertex   -4.163176e+000 -2.575961e-001 8.000000e+000
    endloop
  endfacet
  facet normal 8.125553e-017 1.742531e-016 1.000000e+000
    outer loop
      vertex   -4.078990e+000 -2.801537e-001 8.000000e+000
      vertex   -4.000000e+000 -3.169873e-001 8.000000e+000
      vertex   -5.216529e+000 5.347350e+000 8.000000e+000
    endloop
  endfacet
  facet normal 1.292275e-016 1.845560e-016 1.000000e+000
    outer loop
      vertex   -5.216529e+000 5.347350e+000 8.000000e+000
      vertex   -4.000000e+000 -3.169873e-001 8.000000e+000
      vertex   -3.928606e+000 -3.669778e-001 8.000000e+000
    endloop
  endfacet
  facet normal 2.006546e-016 2.006546e-016 1.000000e+000
    outer loop
      vertex   -3.866978e+000 -4.286062e-001 8.000000e+000
      vertex   -5.216529e+000 5.347350e+000 8.000000e+000
      vertex   -3.928606e+000 -3.669778e-001 8.000000e+000
    endloop
  endfacet
  facet normal -3.841653e-016 6.401154e-017 1.000000e+000
    outer loop
      vertex   -3.866978e+000 -4.286062e-001 8.000000e+000
      vertex   -4.969990e+000 6.826951e+000 8.000000e+000
      vertex   -5.216529e+000 5.347350e+000 8.000000e+000
    endloop
  endfacet
  facet normal 2.233072e-016 1.563614e-016 1.000000e+000
    outer loop
      vertex   -3.866978e+000 -4.286062e-001 8.000000e+000
      vertex   -3.816987e+000 -5.000000e-001 8.000000e+000
      vertex   -4.969990e+000 6.826951e+000 8.000000e+000
    endloop
  endfacet
  facet normal 3.923724e-016 1.829663e-016 1.000000e+000
    outer loop
      vertex   -4.969990e+000 6.826951e+000 8.000000e+000
      vertex   -3.816987e+000 -5.000000e-001 8.000000e+000
      vertex   -3.780154e+000 -5.789899e-001 8.000000e+000
    endloop
  endfacet
  facet normal 2.817617e-016 7.549781e-017 1.000000e+000
    outer loop
      vertex   -4.066015e+000 1.225215e+001 8.000000e+000
      vertex   -3.780154e+000 -5.789899e-001 8.000000e+000
      vertex   -3.757596e+000 -6.631759e-001 8.000000e+000
    endloop
  endfacet
  facet normal 4.764586e-016 9.349247e-017 1.000000e+000
    outer loop
      vertex   -3.250000e+000 1.575000e+001 8.000000e+000
      vertex   -3.757596e+000 -6.631759e-001 8.000000e+000
      vertex   -3.250000e+000 -3.250000e+000 8.000000e+000
    endloop
  endfacet
  facet normal 7.199578e-016 8.596198e-017 1.000000e+000
    outer loop
      vertex   -3.250000e+000 1.575000e+001 8.000000e+000
      vertex   -4.066015e+000 1.225215e+001 8.000000e+000
      vertex   -3.757596e+000 -6.631759e-001 8.000000e+000
    endloop
  endfacet
  facet normal 2.679521e-016 1.914108e-016 1.000000e+000
    outer loop
      vertex   -3.250000e+000 1.575000e+001 8.000000e+000
      vertex   -4.682547e+000 1.311522e+001 8.000000e+000
      vertex   -4.066015e+000 1.225215e+001 8.000000e+000
    endloop
  endfacet
  facet normal -5.799113e-016 6.524002e-016 1.000000e+000
    outer loop
      vertex   -3.250000e+000 1.575000e+001 8.000000e+000
      vertex   -5.500000e+000 1.375000e+001 8.000000e+000
      vertex   -4.682547e+000 1.311522e+001 8.000000e+000
    endloop
  endfacet
  facet normal -0.000000e+000 0.000000e+000 1.000000e+000
    outer loop
      vertex   -3.250000e+000 1.575000e+001 8.000000e+000
      vertex   -1.100000e+001 1.375000e+001 8.000000e+000
      vertex   -5.500000e+000 1.375000e+001 8.000000e+000
    endloop
  endfacet
  facet normal 0.000000e+000 0.000000e+000 1.000000e+000
    outer loop
      vertex   -3.250000e+000 1.575000e+001 8.000000e+000
      vertex   -1.575000e+001 1.575000e+001 8.000000e+000
      vertex   -1.100000e+001 1.375000e+001 8.000000e+000
    endloop
  endfacet
  facet normal 3.746090e-016 8.896964e-016 1.000000e+000
    outer loop
      vertex   -1.100000e+001 1.375000e+001 8.000000e+000
      vertex   -1.575000e+001 1.575000e+001 8.000000e+000
      vertex   -1.178458e+001 1.308206e+001 8.000000e+000
    endloop
  endfacet
  facet normal 1.852979e-016 1.112065e-015 1.000000e+000
    outer loop
      vertex   -1.168460e+001 1.306540e+001 8.000000e+000
      vertex   -1.100000e+001 1.375000e+001 8.000000e+000
      vertex   -1.178458e+001 1.308206e+001 8.000000e+000
    endloop
  endfacet
  facet normal -0.000000e+000 -0.000000e+000 1.000000e+000
    outer loop
      vertex   -6.983573e+000 -6.943843e-001 8.000000e+000
      vertex   -4.683013e+000 -1.000000e+000 8.000000e+000
      vertex   -6.120503e+000 -7.785312e-002 8.000000e+000
    endloop
  endfacet
  facet normal -3.664327e-016 6.105686e-017 1.000000e+000
    outer loop
      vertex   -4.969990e+000 6.826951e+000 8.000000e+000
      vertex   -3.780154e+000 -5.789899e-001 8.000000e+000
      vertex   -4.066015e+000 1.225215e+001 8.000000e+000
    endloop
  endfacet
  facet normal 0.000000e+000 0.000000e+000 1.000000e+000
    outer loop
      vertex   -3.757596e+000 -6.631759e-001 8.000000e+000
      vertex   -3.750000e+000 -7.500000e-001 8.000000e+000
      vertex   -3.250000e+000 -3.250000e+000 8.000000e+000
    endloop
  endfacet
  facet normal 0.000000e+000 0.000000e+000 1.000000e+000
    outer loop
      vertex   -3.250000e+000 -3.250000e+000 8.000000e+000
      vertex   -3.750000e+000 -7.500000e-001 8.000000e+000
      vertex   -3.757596e+000 -8.368241e-001 8.000000e+000
    endloop
  endfacet
  facet normal -0.000000e+000 -0.000000e+000 1.000000e+000
    outer loop
      vertex   -3.780154e+000 -9.210101e-001 8.000000e+000
      vertex   -3.250000e+000 -3.250000e+000 8.000000e+000
      vertex   -3.757596e+000 -8.368241e-001 8.000000e+000
    endloop
  endfacet
  facet normal 0.000000e+000 0.000000e+000 1.000000e+000
    outer loop
      vertex   -3.780154e+000 -9.210101e-001 8.000000e+000
      vertex   -3.816987e+000 -1.000000e+000 8.000000e+000
      vertex   -3.250000e+000 -3.250000e+000 8.000000e+000
    endloop
  endfacet
  facet normal 0.000000e+000 0.000000e+000 1.000000e+000
    outer loop
      vertex   -3.250000e+000 -3.250000e+000 8.000000e+000
      vertex   -3.816987e+000 -1.000000e+000 8.000000e+000
      vertex   -3.866978e+000 -1.071394e+000 8.000000e+000
    endloop
  endfacet
  facet normal -0.000000e+000 -0.000000e+000 1.000000e+000
    outer loop
      vertex   -3.928606e+000 -1.133022e+000 8.000000e+000
      vertex   -3.250000e+000 -3.250000e+000 8.000000e+000
      vertex   -3.866978e+000 -1.071394e+000 8.000000e+000
    endloop
  endfacet
  facet normal 0.000000e+000 0.000000e+000 1.000000e+000
    outer loop
      vertex   -3.928606e+000 -1.133022e+000 8.000000e+000
      vertex   -4.000000e+000 -1.183013e+000 8.000000e+000
      vertex   -3.250000e+000 -3.250000e+000 8.000000e+000
    endloop
  endfacet
  facet normal -2.433616e-016 4.055013e-017 1.000000e+000
    outer loop
      vertex   -1.355163e+001 7.040322e+000 8.000000e+000
      vertex   -1.264765e+001 1.246553e+001 8.000000e+000
      vertex   -1.575000e+001 1.575000e+001 8.000000e+000
    endloop
  endfacet
  facet normal 2.137050e-016 1.281048e-016 1.000000e+000
    outer loop
      vertex   -1.379816e+001 5.560721e+000 8.000000e+000
      vertex   -1.575000e+001 1.575000e+001 8.000000e+000
      vertex   -1.470214e+001 1.355177e-001 8.000000e+000
    endloop
  endfacet
  facet normal -2.433616e-016 4.055013e-017 1.000000e+000
    outer loop
      vertex   -1.379816e+001 5.560721e+000 8.000000e+000
      vertex   -1.355163e+001 7.040322e+000 8.000000e+000
      vertex   -1.575000e+001 1.575000e+001 8.000000e+000
    endloop
  endfacet
  facet normal 0.000000e+000 -0.000000e+000 1.000000e+000
    outer loop
      vertex   -1.379816e+001 5.560721e+000 8.000000e+000
      vertex   -1.300000e+001 6.250000e+000 8.000000e+000
      vertex   -1.355163e+001 7.040322e+000 8.000000e+000
    endloop
  endfacet
  facet normal 0.000000e+000 0.000000e+000 1.000000e+000
    outer loop
      vertex   -1.379816e+001 5.560721e+000 8.000000e+000
      vertex   -1.300000e+001 6.130887e+000 8.000000e+000
      vertex   -1.300000e+001 6.250000e+000 8.000000e+000
    endloop
  endfacet
  facet normal 2.968357e-016 1.781459e-015 1.000000e+000
    outer loop
      vertex   -5.500000e+000 1.375000e+001 8.000000e+000
      vertex   -4.901748e+000 1.315175e+001 8.000000e+000
      vertex   -4.682547e+000 1.311522e+001 8.000000e+000
    endloop
  endfacet
  facet normal 0.000000e+000 0.000000e+000 1.000000e+000
    outer loop
      vertex   -4.969990e+000 6.826951e+000 8.000000e+000
      vertex   -5.833060e+000 6.210420e+000 8.000000e+000
      vertex   -5.216529e+000 5.347350e+000 8.000000e+000
    endloop
  endfacet
  facet normal 0.000000e+000 0.000000e+000 1.000000e+000
    outer loop
      vertex   -1.350000e+001 -1.250000e+000 8.000000e+000
      vertex   -1.400982e+001 -7.401801e-001 8.000000e+000
      vertex   -1.408561e+001 -7.275520e-001 8.000000e+000
    endloop
  endfacet
  facet normal -3.020633e-016 9.349247e-017 1.000000e+000
    outer loop
      vertex   -1.575000e+001 -3.250000e+000 8.000000e+000
      vertex   -1.470214e+001 1.355177e-001 8.000000e+000
      vertex   -1.575000e+001 1.575000e+001 8.000000e+000
    endloop
  endfacet
  facet normal 0.000000e+000 -0.000000e+000 1.000000e+000
    outer loop
      vertex   -1.300000e+001 6.250000e+000 8.000000e+000
      vertex   -1.299245e+001 6.257547e+000 8.000000e+000
      vertex   -1.355163e+001 7.040322e+000 8.000000e+000
    endloop
  endfacet
  facet normal -1.153446e-016 1.614685e-016 1.000000e+000
    outer loop
      vertex   -1.264765e+001 1.246553e+001 8.000000e+000
      vertex   -1.178458e+001 1.308206e+001 8.000000e+000
      vertex   -1.575000e+001 1.575000e+001 8.000000e+000
    endloop
  endfacet
  facet normal 0.000000e+000 -0.000000e+000 1.000000e+000
    outer loop
      vertex   -6.502994e+000 6.752994e+000 8.000000e+000
      vertex   -5.587055e+000 1.225000e+001 8.000000e+000
      vertex   -6.750000e+000 7.000000e+000 8.000000e+000
    endloop
  endfacet
  facet normal 0.000000e+000 -0.000000e+000 1.000000e+000
    outer loop
      vertex   -6.750000e+000 7.000000e+000 8.000000e+000
      vertex   -5.587055e+000 1.225000e+001 8.000000e+000
      vertex   -1.116288e+001 1.225000e+001 8.000000e+000
    endloop
  endfacet
  facet normal 0.000000e+000 -0.000000e+000 1.000000e+000
    outer loop
      vertex   -1.203766e+001 7.000000e+000 8.000000e+000
      vertex   -6.750000e+000 7.000000e+000 8.000000e+000
      vertex   -1.116288e+001 1.225000e+001 8.000000e+000
    endloop
  endfacet
  facet normal 7.132909e-024 -3.137087e-008 -1.000000e+000
    outer loop
      vertex   -1.575000e+001 -3.250000e+000 7.152557e-007
      vertex   -1.575000e+001 1.575000e+001 1.192093e-007
      vertex   -3.250000e+000 -3.250000e+000 7.152557e-007
    endloop
  endfacet
  facet normal 8.916136e-024 -3.137087e-008 -1.000000e+000
    outer loop
      vertex   -3.250000e+000 -3.250000e+000 7.152557e-007
      vertex   -1.575000e+001 1.575000e+001 1.192093e-007
      vertex   -3.250000e+000 1.575000e+001 1.192093e-007
    endloop
  endfacet
  facet normal 3.552714e-016 -1.000000e+000 0.000000e+000
    outer loop
      vertex   -3.250000e+000 -3.250000e+000 8.000000e+000
      vertex   -1.575000e+001 -3.250000e+000 8.000000e+000
      vertex   -3.250000e+000 -3.250000e+000 7.152557e-007
    endloop
  endfacet
  facet normal 3.552714e-016 -1.000000e+000 0.000000e+000
    outer loop
      vertex   -3.250000e+000 -3.250000e+000 7.152557e-007
      vertex   -1.575000e+001 -3.250000e+000 8.000000e+000
      vertex   -1.575000e+001 -3.250000e+000 7.152557e-007
    endloop
  endfacet
  facet normal 1.000000e+000 3.505967e-016 0.000000e+000
    outer loop
      vertex   -3.250000e+000 -3.250000e+000 8.000000e+000
      vertex   -3.250000e+000 -3.250000e+000 7.152557e-007
      vertex   -3.250000e+000 1.575000e+001 8.000000e+000
    endloop
  endfacet
  facet normal 1.000000e+000 3.505967e-016 0.000000e+000
    outer loop
      vertex   -3.250000e+000 1.575000e+001 8.000000e+000
      vertex   -3.250000e+000 -3.250000e+000 7.152557e-007
      vertex   -3.250000e+000 1.575000e+001 1.192093e-007
    endloop
  endfacet
  facet normal -2.842171e-016 1.000000e+000 0.000000e+000
    outer loop
      vertex   -1.575000e+001 1.575000e+001 8.000000e+000
      vertex   -3.250000e+000 1.575000e+001 8.000000e+000
      vertex   -1.575000e+001 1.575000e+001 1.192093e-007
    endloop
  endfacet
  facet normal -2.842171e-016 1.000000e+000 0.000000e+000
    outer loop
      vertex   -1.575000e+001 1.575000e+001 1.192093e-007
      vertex   -3.250000e+000 1.575000e+001 8.000000e+000
      vertex   -3.250000e+000 1.575000e+001 1.192093e-007
    endloop
  endfacet
  facet normal -1.000000e+000 -2.804774e-016 0.000000e+000
    outer loop
      vertex   -1.575000e+001 -3.250000e+000 8.000000e+000
      vertex   -1.575000e+001 1.575000e+001 8.000000e+000
      vertex   -1.575000e+001 -3.250000e+000 7.152557e-007
    endloop
  endfacet
  facet normal -1.000000e+000 -2.804774e-016 -0.000000e+000
    outer loop
      vertex   -1.575000e+001 -3.250000e+000 7.152557e-007
      vertex   -1.575000e+001 1.575000e+001 8.000000e+000
      vertex   -1.575000e+001 1.575000e+001 1.192093e-007
    endloop
  endfacet
  facet normal -2.694832e-032 1.691768e-016 1.000000e+000
    outer loop
      vertex   -6.711774e+000 5.500000e+000 8.000000e+000
      vertex   -1.228760e+001 5.500000e+000 8.000000e+000
      vertex   -7.586555e+000 2.500000e-001 8.000000e+000
    endloop
  endfacet
  facet normal -1.077933e-031 1.691768e-016 1.000000e+000
    outer loop
      vertex   -7.586555e+000 2.500000e-001 8.000000e+000
      vertex   -1.228760e+001 5.500000e+000 8.000000e+000
      vertex   -1.316238e+001 2.500000e-001 8.000000e+000
    endloop
  endfacet
endsolid
