solid OpenSCAD_Model
  facet normal 1 -0 0
    outer loop
      vertex 80 60 -75
      vertex 80 65 -80
      vertex 80 65 -75
    endloop
  endfacet
  facet normal 1 0 0
    outer loop
      vertex 80 55 -80
      vertex 80 60 -75
      vertex 80 55 -75
    endloop
  endfacet
  facet normal 1 0 0
    outer loop
      vertex 80 60 -75
      vertex 80 55 -80
      vertex 80 65 -80
    endloop
  endfacet
  facet normal 1 -0 0
    outer loop
      vertex 80 40 -75
      vertex 80 45 -80
      vertex 80 45 -75
    endloop
  endfacet
  facet normal 1 0 0
    outer loop
      vertex 80 35 -80
      vertex 80 40 -75
      vertex 80 35 -75
    endloop
  endfacet
  facet normal 1 0 0
    outer loop
      vertex 80 40 -75
      vertex 80 35 -80
      vertex 80 45 -80
    endloop
  endfacet
  facet normal 1 -0 0
    outer loop
      vertex 80 35 -45
      vertex 80 40 -50
      vertex 80 40 -45
    endloop
  endfacet
  facet normal 1 0 0
    outer loop
      vertex 80 40 -50
      vertex 80 35 -45
      vertex 80 40 -55
    endloop
  endfacet
  facet normal 1 0 0
    outer loop
      vertex 80 40 -55
      vertex 80 35 -45
      vertex 80 40 -65
    endloop
  endfacet
  facet normal 1 0 0
    outer loop
      vertex 80 35 -75
      vertex 80 40 -65
      vertex 80 35 -45
    endloop
  endfacet
  facet normal 1 0 0
    outer loop
      vertex 80 40 -65
      vertex 80 35 -75
      vertex 80 40 -75
    endloop
  endfacet
  facet normal 1 0 0
    outer loop
      vertex 80 60 -50
      vertex 80 65 -45
      vertex 80 60 -45
    endloop
  endfacet
  facet normal 1 0 0
    outer loop
      vertex 80 65 -45
      vertex 80 60 -50
      vertex 80 65 -75
    endloop
  endfacet
  facet normal 1 -0 0
    outer loop
      vertex 80 60 -70
      vertex 80 65 -75
      vertex 80 60 -50
    endloop
  endfacet
  facet normal 1 0 0
    outer loop
      vertex 80 65 -75
      vertex 80 60 -70
      vertex 80 60 -75
    endloop
  endfacet
  facet normal 1 0 0
    outer loop
      vertex 80 65 -40
      vertex 80 60 -45
      vertex 80 65 -45
    endloop
  endfacet
  facet normal 1 -0 0
    outer loop
      vertex 80 55 -40
      vertex 80 60 -45
      vertex 80 65 -40
    endloop
  endfacet
  facet normal 1 0 0
    outer loop
      vertex 80 60 -45
      vertex 80 55 -40
      vertex 80 55 -45
    endloop
  endfacet
  facet normal 1 0 0
    outer loop
      vertex 80 45 -40
      vertex 80 40 -45
      vertex 80 45 -45
    endloop
  endfacet
  facet normal 1 -0 0
    outer loop
      vertex 80 35 -40
      vertex 80 40 -45
      vertex 80 45 -40
    endloop
  endfacet
  facet normal 1 0 0
    outer loop
      vertex 80 40 -45
      vertex 80 35 -40
      vertex 80 35 -45
    endloop
  endfacet
  facet normal -1 0 0
    outer loop
      vertex 80 45 -90
      vertex 80 55 -85
      vertex 80 55 -90
    endloop
  endfacet
  facet normal -1 -0 0
    outer loop
      vertex 80 55 -85
      vertex 80 45 -90
      vertex 80 45 -85
    endloop
  endfacet
  facet normal -1 0 0
    outer loop
      vertex 80 45 -35
      vertex 80 55 -30
      vertex 80 55 -35
    endloop
  endfacet
  facet normal -1 -0 0
    outer loop
      vertex 80 55 -30
      vertex 80 45 -35
      vertex 80 45 -30
    endloop
  endfacet
  facet normal -1 0 0
    outer loop
      vertex 80 45 -85
      vertex 80 55 -80
      vertex 80 55 -85
    endloop
  endfacet
  facet normal -1 -0 0
    outer loop
      vertex 80 55 -80
      vertex 80 45 -85
      vertex 80 45 -80
    endloop
  endfacet
  facet normal -1 0 0
    outer loop
      vertex 80 45 -40
      vertex 80 55 -35
      vertex 80 55 -40
    endloop
  endfacet
  facet normal -1 -0 0
    outer loop
      vertex 80 55 -35
      vertex 80 45 -40
      vertex 80 45 -35
    endloop
  endfacet
  facet normal -1 0 0
    outer loop
      vertex 95 30 -80
      vertex 95 40 -75
      vertex 95 40 -80
    endloop
  endfacet
  facet normal -1 0 0
    outer loop
      vertex 95 30 -65
      vertex 95 40 -75
      vertex 95 30 -80
    endloop
  endfacet
  facet normal -1 0 0
    outer loop
      vertex 95 40 -75
      vertex 95 30 -65
      vertex 95 40 -65
    endloop
  endfacet
  facet normal 1 -0 0
    outer loop
      vertex 95 40 -55
      vertex 95 45 -65
      vertex 95 45 -55
    endloop
  endfacet
  facet normal 1 0 0
    outer loop
      vertex 95 45 -65
      vertex 95 40 -55
      vertex 95 40 -65
    endloop
  endfacet
  facet normal -1 0 0
    outer loop
      vertex 95 40 -80
      vertex 95 45 -75
      vertex 95 45 -80
    endloop
  endfacet
  facet normal -1 -0 0
    outer loop
      vertex 95 45 -75
      vertex 95 40 -80
      vertex 95 40 -75
    endloop
  endfacet
  facet normal 1 -0 0
    outer loop
      vertex 95 50 -55
      vertex 95 55 -65
      vertex 95 55 -55
    endloop
  endfacet
  facet normal 1 0 0
    outer loop
      vertex 95 55 -65
      vertex 95 50 -55
      vertex 95 50 -65
    endloop
  endfacet
  facet normal 1 0 0
    outer loop
      vertex 95 55 -55
      vertex 95 60 -50
      vertex 95 55 -50
    endloop
  endfacet
  facet normal 1 0 0
    outer loop
      vertex 95 60 -50
      vertex 95 55 -55
      vertex 95 60 -70
    endloop
  endfacet
  facet normal 1 -0 0
    outer loop
      vertex 95 55 -65
      vertex 95 60 -70
      vertex 95 55 -55
    endloop
  endfacet
  facet normal 1 0 0
    outer loop
      vertex 95 60 -70
      vertex 95 55 -65
      vertex 95 55 -70
    endloop
  endfacet
  facet normal 1 -0 0
    outer loop
      vertex 95 55 -70
      vertex 95 60 -75
      vertex 95 60 -70
    endloop
  endfacet
  facet normal 1 0 0
    outer loop
      vertex 95 60 -75
      vertex 95 55 -70
      vertex 95 55 -75
    endloop
  endfacet
  facet normal 1 0 0
    outer loop
      vertex 95 60 -50
      vertex 95 65 -45
      vertex 95 60 -45
    endloop
  endfacet
  facet normal 1 0 0
    outer loop
      vertex 95 65 -45
      vertex 95 60 -50
      vertex 95 65 -75
    endloop
  endfacet
  facet normal 1 -0 0
    outer loop
      vertex 95 60 -70
      vertex 95 65 -75
      vertex 95 60 -50
    endloop
  endfacet
  facet normal 1 0 0
    outer loop
      vertex 95 65 -75
      vertex 95 60 -70
      vertex 95 60 -75
    endloop
  endfacet
  facet normal -1 0 0
    outer loop
      vertex 95 30 -55
      vertex 95 40 -50
      vertex 95 40 -55
    endloop
  endfacet
  facet normal -1 0 0
    outer loop
      vertex 95 30 -45
      vertex 95 40 -50
      vertex 95 30 -55
    endloop
  endfacet
  facet normal -1 0 0
    outer loop
      vertex 95 40 -50
      vertex 95 30 -45
      vertex 95 40 -45
    endloop
  endfacet
  facet normal -1 0 0
    outer loop
      vertex 95 40 -45
      vertex 95 45 -40
      vertex 95 45 -45
    endloop
  endfacet
  facet normal -1 0 0
    outer loop
      vertex 95 30 -40
      vertex 95 40 -45
      vertex 95 30 -45
    endloop
  endfacet
  facet normal -1 0 0
    outer loop
      vertex 95 40 -45
      vertex 95 30 -40
      vertex 95 45 -40
    endloop
  endfacet
  facet normal 1 -0 0
    outer loop
      vertex 95 55 -45
      vertex 95 60 -50
      vertex 95 60 -45
    endloop
  endfacet
  facet normal 1 0 0
    outer loop
      vertex 95 60 -50
      vertex 95 55 -45
      vertex 95 55 -50
    endloop
  endfacet
  facet normal 1 -0 0
    outer loop
      vertex 95 45 -55
      vertex 95 50 -65
      vertex 95 50 -55
    endloop
  endfacet
  facet normal 1 0 0
    outer loop
      vertex 95 50 -65
      vertex 95 45 -55
      vertex 95 45 -65
    endloop
  endfacet
  facet normal 0 1 0
    outer loop
      vertex 90 55 -80
      vertex 95 55 -75
      vertex 95 55 -80
    endloop
  endfacet
  facet normal 0 1 0
    outer loop
      vertex 95 55 -75
      vertex 90 55 -80
      vertex 80 55 -75
    endloop
  endfacet
  facet normal 0 1 0
    outer loop
      vertex 80 55 -75
      vertex 90 55 -80
      vertex 80 55 -80
    endloop
  endfacet
  facet normal 0 1 -0
    outer loop
      vertex 95 55 -45
      vertex 90 55 -40
      vertex 95 55 -40
    endloop
  endfacet
  facet normal 0 1 0
    outer loop
      vertex 80 55 -45
      vertex 90 55 -40
      vertex 95 55 -45
    endloop
  endfacet
  facet normal 0 1 0
    outer loop
      vertex 90 55 -40
      vertex 80 55 -45
      vertex 80 55 -40
    endloop
  endfacet
  facet normal 0 1 -0
    outer loop
      vertex 85 55 -90
      vertex 80 55 -85
      vertex 85 55 -85
    endloop
  endfacet
  facet normal 0 1 0
    outer loop
      vertex 80 55 -85
      vertex 85 55 -90
      vertex 80 55 -90
    endloop
  endfacet
  facet normal 0 1 -0
    outer loop
      vertex 85 55 -35
      vertex 80 55 -30
      vertex 85 55 -30
    endloop
  endfacet
  facet normal 0 1 0
    outer loop
      vertex 80 55 -30
      vertex 85 55 -35
      vertex 80 55 -35
    endloop
  endfacet
  facet normal 0 1 0
    outer loop
      vertex 85 55 -85
      vertex 90 55 -80
      vertex 90 55 -85
    endloop
  endfacet
  facet normal 0 1 0
    outer loop
      vertex 90 55 -80
      vertex 85 55 -85
      vertex 80 55 -80
    endloop
  endfacet
  facet normal 0 1 0
    outer loop
      vertex 80 55 -80
      vertex 85 55 -85
      vertex 80 55 -85
    endloop
  endfacet
  facet normal 0 1 -0
    outer loop
      vertex 90 55 -40
      vertex 85 55 -35
      vertex 90 55 -35
    endloop
  endfacet
  facet normal 0 1 0
    outer loop
      vertex 80 55 -40
      vertex 85 55 -35
      vertex 90 55 -40
    endloop
  endfacet
  facet normal 0 1 0
    outer loop
      vertex 85 55 -35
      vertex 80 55 -40
      vertex 80 55 -35
    endloop
  endfacet
  facet normal 0 -1 0
    outer loop
      vertex 80 45 -90
      vertex 85 45 -85
      vertex 80 45 -85
    endloop
  endfacet
  facet normal 0 -1 -0
    outer loop
      vertex 85 45 -85
      vertex 80 45 -90
      vertex 85 45 -90
    endloop
  endfacet
  facet normal 0 -1 0
    outer loop
      vertex 80 45 -35
      vertex 85 45 -30
      vertex 80 45 -30
    endloop
  endfacet
  facet normal 0 -1 -0
    outer loop
      vertex 85 45 -30
      vertex 80 45 -35
      vertex 85 45 -35
    endloop
  endfacet
  facet normal 0 -1 0
    outer loop
      vertex 90 45 -80
      vertex 80 45 -75
      vertex 80 45 -80
    endloop
  endfacet
  facet normal 0 -1 0
    outer loop
      vertex 80 45 -75
      vertex 90 45 -80
      vertex 95 45 -75
    endloop
  endfacet
  facet normal 0 -1 -0
    outer loop
      vertex 95 45 -75
      vertex 90 45 -80
      vertex 95 45 -80
    endloop
  endfacet
  facet normal 0 -1 0
    outer loop
      vertex 80 45 -45
      vertex 90 45 -40
      vertex 80 45 -40
    endloop
  endfacet
  facet normal 0 -1 0
    outer loop
      vertex 95 45 -45
      vertex 90 45 -40
      vertex 80 45 -45
    endloop
  endfacet
  facet normal 0 -1 0
    outer loop
      vertex 90 45 -40
      vertex 95 45 -45
      vertex 95 45 -40
    endloop
  endfacet
  facet normal 0 -1 0
    outer loop
      vertex 85 45 -85
      vertex 80 45 -80
      vertex 80 45 -85
    endloop
  endfacet
  facet normal 0 -1 0
    outer loop
      vertex 80 45 -80
      vertex 85 45 -85
      vertex 90 45 -80
    endloop
  endfacet
  facet normal 0 -1 -0
    outer loop
      vertex 90 45 -80
      vertex 85 45 -85
      vertex 90 45 -85
    endloop
  endfacet
  facet normal 0 -1 0
    outer loop
      vertex 80 45 -40
      vertex 85 45 -35
      vertex 80 45 -35
    endloop
  endfacet
  facet normal 0 -1 0
    outer loop
      vertex 90 45 -40
      vertex 85 45 -35
      vertex 80 45 -40
    endloop
  endfacet
  facet normal 0 -1 0
    outer loop
      vertex 85 45 -35
      vertex 90 45 -40
      vertex 90 45 -35
    endloop
  endfacet
  facet normal 0 0 -1
    outer loop
      vertex 85 45 -85
      vertex 90 55 -85
      vertex 90 45 -85
    endloop
  endfacet
  facet normal -0 0 -1
    outer loop
      vertex 90 55 -85
      vertex 85 45 -85
      vertex 85 55 -85
    endloop
  endfacet
  facet normal 1 -0 0
    outer loop
      vertex 90 45 -80
      vertex 90 55 -85
      vertex 90 55 -80
    endloop
  endfacet
  facet normal 1 0 0
    outer loop
      vertex 90 55 -85
      vertex 90 45 -80
      vertex 90 45 -85
    endloop
  endfacet
  facet normal 0 0 -1
    outer loop
      vertex 95 45 -80
      vertex 100 55 -80
      vertex 100 45 -80
    endloop
  endfacet
  facet normal 0 0 -1
    outer loop
      vertex 95 45 -80
      vertex 95 55 -80
      vertex 100 55 -80
    endloop
  endfacet
  facet normal 0 0 -1
    outer loop
      vertex 90 45 -80
      vertex 95 55 -80
      vertex 95 45 -80
    endloop
  endfacet
  facet normal -0 0 -1
    outer loop
      vertex 95 55 -80
      vertex 90 45 -80
      vertex 90 55 -80
    endloop
  endfacet
  facet normal 0 0 -1
    outer loop
      vertex 95 30 -80
      vertex 100 40 -80
      vertex 100 30 -80
    endloop
  endfacet
  facet normal -0 0 -1
    outer loop
      vertex 100 40 -80
      vertex 95 30 -80
      vertex 95 40 -80
    endloop
  endfacet
  facet normal 0 0 -1
    outer loop
      vertex 95 40 -80
      vertex 100 45 -80
      vertex 100 40 -80
    endloop
  endfacet
  facet normal -0 0 -1
    outer loop
      vertex 100 45 -80
      vertex 95 40 -80
      vertex 95 45 -80
    endloop
  endfacet
  facet normal -0 0 1
    outer loop
      vertex 95 55 -40
      vertex 100 45 -40
      vertex 100 55 -40
    endloop
  endfacet
  facet normal 0 0 1
    outer loop
      vertex 95 55 -40
      vertex 95 45 -40
      vertex 100 45 -40
    endloop
  endfacet
  facet normal -0 0 1
    outer loop
      vertex 90 55 -40
      vertex 95 45 -40
      vertex 95 55 -40
    endloop
  endfacet
  facet normal 0 0 1
    outer loop
      vertex 95 45 -40
      vertex 90 55 -40
      vertex 90 45 -40
    endloop
  endfacet
  facet normal -0 0 1
    outer loop
      vertex 95 45 -40
      vertex 100 30 -40
      vertex 100 45 -40
    endloop
  endfacet
  facet normal 0 0 1
    outer loop
      vertex 100 30 -40
      vertex 95 45 -40
      vertex 95 30 -40
    endloop
  endfacet
  facet normal 1 -0 0
    outer loop
      vertex 90 45 -35
      vertex 90 55 -40
      vertex 90 55 -35
    endloop
  endfacet
  facet normal 1 0 0
    outer loop
      vertex 90 55 -40
      vertex 90 45 -35
      vertex 90 45 -40
    endloop
  endfacet
  facet normal -0 0 1
    outer loop
      vertex 85 55 -35
      vertex 90 45 -35
      vertex 90 55 -35
    endloop
  endfacet
  facet normal 0 0 1
    outer loop
      vertex 90 45 -35
      vertex 85 55 -35
      vertex 85 45 -35
    endloop
  endfacet
  facet normal 1 -0 0
    outer loop
      vertex 85 45 -30
      vertex 85 55 -35
      vertex 85 55 -30
    endloop
  endfacet
  facet normal 1 0 0
    outer loop
      vertex 85 55 -35
      vertex 85 45 -30
      vertex 85 45 -35
    endloop
  endfacet
  facet normal -0 0 1
    outer loop
      vertex 80 55 -30
      vertex 85 45 -30
      vertex 85 55 -30
    endloop
  endfacet
  facet normal 0 0 1
    outer loop
      vertex 85 45 -30
      vertex 80 55 -30
      vertex 80 45 -30
    endloop
  endfacet
  facet normal 0 0 -1
    outer loop
      vertex 80 45 -90
      vertex 85 55 -90
      vertex 85 45 -90
    endloop
  endfacet
  facet normal -0 0 -1
    outer loop
      vertex 85 55 -90
      vertex 80 45 -90
      vertex 80 55 -90
    endloop
  endfacet
  facet normal 1 -0 0
    outer loop
      vertex 85 45 -85
      vertex 85 55 -90
      vertex 85 55 -85
    endloop
  endfacet
  facet normal 1 0 0
    outer loop
      vertex 85 55 -90
      vertex 85 45 -85
      vertex 85 45 -90
    endloop
  endfacet
  facet normal -1 0 0
    outer loop
      vertex 65 30 -65
      vertex 65 35 -55
      vertex 65 35 -65
    endloop
  endfacet
  facet normal -1 -0 0
    outer loop
      vertex 65 35 -55
      vertex 65 30 -65
      vertex 65 30 -55
    endloop
  endfacet
  facet normal 1 -0 0
    outer loop
      vertex 75 30 -65
      vertex 75 35 -70
      vertex 75 35 -65
    endloop
  endfacet
  facet normal 1 0 0
    outer loop
      vertex 75 35 -70
      vertex 75 30 -65
      vertex 75 30 -70
    endloop
  endfacet
  facet normal 1 -0 0
    outer loop
      vertex 75 30 -50
      vertex 75 35 -55
      vertex 75 35 -50
    endloop
  endfacet
  facet normal 1 0 0
    outer loop
      vertex 75 35 -55
      vertex 75 30 -50
      vertex 75 30 -55
    endloop
  endfacet
  facet normal 1 -0 0
    outer loop
      vertex 75 30 -55
      vertex 75 35 -65
      vertex 75 35 -55
    endloop
  endfacet
  facet normal 1 0 0
    outer loop
      vertex 75 35 -65
      vertex 75 30 -55
      vertex 75 30 -65
    endloop
  endfacet
  facet normal 0 -1 0
    outer loop
      vertex 60 35 -80
      vertex 80 35 -75
      vertex 60 35 -75
    endloop
  endfacet
  facet normal 0 -1 -0
    outer loop
      vertex 80 35 -75
      vertex 60 35 -80
      vertex 80 35 -80
    endloop
  endfacet
  facet normal 0 -1 0
    outer loop
      vertex 65 35 -55
      vertex 60 35 -45
      vertex 55 35 -45
    endloop
  endfacet
  facet normal 0 -1 0
    outer loop
      vertex 60 35 -45
      vertex 70 35 -50
      vertex 80 35 -45
    endloop
  endfacet
  facet normal 0 -1 0
    outer loop
      vertex 60 35 -45
      vertex 65 35 -55
      vertex 70 35 -50
    endloop
  endfacet
  facet normal 0 -1 0
    outer loop
      vertex 55 35 -45
      vertex 65 35 -65
      vertex 65 35 -55
    endloop
  endfacet
  facet normal 0 -1 0
    outer loop
      vertex 65 35 -65
      vertex 70 35 -70
      vertex 70 35 -65
    endloop
  endfacet
  facet normal 0 -1 -0
    outer loop
      vertex 65 35 -65
      vertex 60 35 -75
      vertex 70 35 -70
    endloop
  endfacet
  facet normal 0 -1 0
    outer loop
      vertex 60 35 -75
      vertex 65 35 -65
      vertex 55 35 -75
    endloop
  endfacet
  facet normal 0 -1 0
    outer loop
      vertex 55 35 -75
      vertex 65 35 -65
      vertex 55 35 -45
    endloop
  endfacet
  facet normal 0 -1 0
    outer loop
      vertex 75 35 -50
      vertex 80 35 -45
      vertex 70 35 -50
    endloop
  endfacet
  facet normal 0 -1 0
    outer loop
      vertex 75 35 -55
      vertex 80 35 -45
      vertex 75 35 -50
    endloop
  endfacet
  facet normal 0 -1 0
    outer loop
      vertex 75 35 -65
      vertex 80 35 -45
      vertex 75 35 -55
    endloop
  endfacet
  facet normal 0 -1 0
    outer loop
      vertex 80 35 -75
      vertex 75 35 -65
      vertex 75 35 -70
    endloop
  endfacet
  facet normal 0 -1 0
    outer loop
      vertex 80 35 -75
      vertex 70 35 -70
      vertex 60 35 -75
    endloop
  endfacet
  facet normal 0 -1 0
    outer loop
      vertex 75 35 -65
      vertex 80 35 -75
      vertex 80 35 -45
    endloop
  endfacet
  facet normal 0 -1 0
    outer loop
      vertex 70 35 -70
      vertex 80 35 -75
      vertex 75 35 -70
    endloop
  endfacet
  facet normal 0 -1 -0
    outer loop
      vertex 70 35 -50
      vertex 65 35 -55
      vertex 70 35 -55
    endloop
  endfacet
  facet normal 0 -1 0
    outer loop
      vertex 60 35 -45
      vertex 80 35 -40
      vertex 60 35 -40
    endloop
  endfacet
  facet normal 0 -1 -0
    outer loop
      vertex 80 35 -40
      vertex 60 35 -45
      vertex 80 35 -45
    endloop
  endfacet
  facet normal 0 -1 0
    outer loop
      vertex 70 30 -65
      vertex 70 30 -55
      vertex 65 30 -55
    endloop
  endfacet
  facet normal 0 -1 0
    outer loop
      vertex 70 30 -65
      vertex 65 30 -55
      vertex 65 30 -65
    endloop
  endfacet
  facet normal 0 -1 0
    outer loop
      vertex 70 30 -55
      vertex 70 30 -65
      vertex 75 30 -55
    endloop
  endfacet
  facet normal 0 -1 -0
    outer loop
      vertex 75 30 -55
      vertex 70 30 -65
      vertex 75 30 -65
    endloop
  endfacet
  facet normal 0 -1 0
    outer loop
      vertex 70 30 -70
      vertex 75 30 -65
      vertex 70 30 -65
    endloop
  endfacet
  facet normal 0 -1 -0
    outer loop
      vertex 75 30 -65
      vertex 70 30 -70
      vertex 75 30 -70
    endloop
  endfacet
  facet normal 0 -1 0
    outer loop
      vertex 70 30 -55
      vertex 75 30 -50
      vertex 70 30 -50
    endloop
  endfacet
  facet normal 0 -1 -0
    outer loop
      vertex 75 30 -50
      vertex 70 30 -55
      vertex 75 30 -55
    endloop
  endfacet
  facet normal -0 0 1
    outer loop
      vertex 70 35 -50
      vertex 75 30 -50
      vertex 75 35 -50
    endloop
  endfacet
  facet normal 0 0 1
    outer loop
      vertex 75 30 -50
      vertex 70 35 -50
      vertex 70 30 -50
    endloop
  endfacet
  facet normal -1 0 0
    outer loop
      vertex 70 30 -55
      vertex 70 35 -50
      vertex 70 35 -55
    endloop
  endfacet
  facet normal -1 -0 0
    outer loop
      vertex 70 35 -50
      vertex 70 30 -55
      vertex 70 30 -50
    endloop
  endfacet
  facet normal -0 0 1
    outer loop
      vertex 65 35 -55
      vertex 70 30 -55
      vertex 70 35 -55
    endloop
  endfacet
  facet normal 0 0 1
    outer loop
      vertex 70 30 -55
      vertex 65 35 -55
      vertex 65 30 -55
    endloop
  endfacet
  facet normal 0 0 -1
    outer loop
      vertex 65 30 -65
      vertex 70 35 -65
      vertex 70 30 -65
    endloop
  endfacet
  facet normal -0 0 -1
    outer loop
      vertex 70 35 -65
      vertex 65 30 -65
      vertex 65 35 -65
    endloop
  endfacet
  facet normal -1 0 0
    outer loop
      vertex 70 30 -70
      vertex 70 35 -65
      vertex 70 35 -70
    endloop
  endfacet
  facet normal -1 -0 0
    outer loop
      vertex 70 35 -65
      vertex 70 30 -70
      vertex 70 30 -65
    endloop
  endfacet
  facet normal 0 0 -1
    outer loop
      vertex 70 30 -70
      vertex 75 35 -70
      vertex 75 30 -70
    endloop
  endfacet
  facet normal -0 0 -1
    outer loop
      vertex 75 35 -70
      vertex 70 30 -70
      vertex 70 35 -70
    endloop
  endfacet
  facet normal 0 1 -0
    outer loop
      vertex 100 55 -80
      vertex 95 55 -75
      vertex 100 55 -75
    endloop
  endfacet
  facet normal 0 1 0
    outer loop
      vertex 95 55 -75
      vertex 100 55 -80
      vertex 95 55 -80
    endloop
  endfacet
  facet normal 0 1 -0
    outer loop
      vertex 100 55 -70
      vertex 95 55 -65
      vertex 100 55 -65
    endloop
  endfacet
  facet normal 0 1 0
    outer loop
      vertex 95 55 -65
      vertex 100 55 -70
      vertex 95 55 -70
    endloop
  endfacet
  facet normal 0 1 -0
    outer loop
      vertex 100 55 -75
      vertex 95 55 -70
      vertex 100 55 -70
    endloop
  endfacet
  facet normal 0 1 0
    outer loop
      vertex 95 55 -70
      vertex 100 55 -75
      vertex 95 55 -75
    endloop
  endfacet
  facet normal 0 1 -0
    outer loop
      vertex 100 55 -55
      vertex 95 55 -50
      vertex 100 55 -50
    endloop
  endfacet
  facet normal 0 1 0
    outer loop
      vertex 95 55 -50
      vertex 100 55 -55
      vertex 95 55 -55
    endloop
  endfacet
  facet normal 0 1 -0
    outer loop
      vertex 100 55 -45
      vertex 95 55 -40
      vertex 100 55 -40
    endloop
  endfacet
  facet normal 0 1 0
    outer loop
      vertex 95 55 -40
      vertex 100 55 -45
      vertex 95 55 -45
    endloop
  endfacet
  facet normal 0 1 -0
    outer loop
      vertex 100 55 -50
      vertex 95 55 -45
      vertex 100 55 -45
    endloop
  endfacet
  facet normal 0 1 0
    outer loop
      vertex 95 55 -45
      vertex 100 55 -50
      vertex 95 55 -50
    endloop
  endfacet
  facet normal -1 0 0
    outer loop
      vertex 95 65 -80
      vertex 95 60 -75
      vertex 95 65 -75
    endloop
  endfacet
  facet normal -1 0 0
    outer loop
      vertex 95 55 -80
      vertex 95 60 -75
      vertex 95 65 -80
    endloop
  endfacet
  facet normal -1 -0 0
    outer loop
      vertex 95 60 -75
      vertex 95 55 -80
      vertex 95 55 -75
    endloop
  endfacet
  facet normal 1 -0 0
    outer loop
      vertex 95 60 -75
      vertex 95 65 -80
      vertex 95 65 -75
    endloop
  endfacet
  facet normal 1 0 0
    outer loop
      vertex 95 55 -80
      vertex 95 60 -75
      vertex 95 55 -75
    endloop
  endfacet
  facet normal 1 0 0
    outer loop
      vertex 95 60 -75
      vertex 95 55 -80
      vertex 95 65 -80
    endloop
  endfacet
  facet normal -1 0 0
    outer loop
      vertex 95 30 -65
      vertex 95 40 -55
      vertex 95 40 -65
    endloop
  endfacet
  facet normal -1 -0 0
    outer loop
      vertex 95 40 -55
      vertex 95 30 -65
      vertex 95 30 -55
    endloop
  endfacet
  facet normal 1 -0 0
    outer loop
      vertex 95 30 -55
      vertex 95 40 -65
      vertex 95 40 -55
    endloop
  endfacet
  facet normal 1 0 0
    outer loop
      vertex 95 40 -65
      vertex 95 30 -55
      vertex 95 30 -65
    endloop
  endfacet
  facet normal -1 0 0
    outer loop
      vertex 95 60 -45
      vertex 95 65 -40
      vertex 95 65 -45
    endloop
  endfacet
  facet normal -1 0 0
    outer loop
      vertex 95 55 -40
      vertex 95 60 -45
      vertex 95 55 -45
    endloop
  endfacet
  facet normal -1 0 0
    outer loop
      vertex 95 60 -45
      vertex 95 55 -40
      vertex 95 65 -40
    endloop
  endfacet
  facet normal 1 0 0
    outer loop
      vertex 95 65 -40
      vertex 95 60 -45
      vertex 95 65 -45
    endloop
  endfacet
  facet normal 1 -0 0
    outer loop
      vertex 95 55 -40
      vertex 95 60 -45
      vertex 95 65 -40
    endloop
  endfacet
  facet normal 1 0 0
    outer loop
      vertex 95 60 -45
      vertex 95 55 -40
      vertex 95 55 -45
    endloop
  endfacet
  facet normal 0 1 -0
    outer loop
      vertex 95 65 -75
      vertex 90 65 -45
      vertex 95 65 -45
    endloop
  endfacet
  facet normal 0 1 0
    outer loop
      vertex 90 65 -45
      vertex 95 65 -75
      vertex 90 65 -75
    endloop
  endfacet
  facet normal -1 0 0
    outer loop
      vertex 90 60 -70
      vertex 90 65 -75
      vertex 90 60 -75
    endloop
  endfacet
  facet normal -1 0 0
    outer loop
      vertex 90 65 -75
      vertex 90 60 -70
      vertex 90 65 -45
    endloop
  endfacet
  facet normal -1 0 0
    outer loop
      vertex 90 60 -50
      vertex 90 65 -45
      vertex 90 60 -70
    endloop
  endfacet
  facet normal -1 -0 0
    outer loop
      vertex 90 65 -45
      vertex 90 60 -50
      vertex 90 60 -45
    endloop
  endfacet
  facet normal 0 1 -0
    outer loop
      vertex 90 60 -75
      vertex 80 60 -70
      vertex 90 60 -70
    endloop
  endfacet
  facet normal 0 1 0
    outer loop
      vertex 80 60 -70
      vertex 90 60 -75
      vertex 80 60 -75
    endloop
  endfacet
  facet normal 0 1 -0
    outer loop
      vertex 90 60 -50
      vertex 80 60 -45
      vertex 90 60 -45
    endloop
  endfacet
  facet normal 0 1 0
    outer loop
      vertex 80 60 -45
      vertex 90 60 -50
      vertex 80 60 -50
    endloop
  endfacet
  facet normal 0 1 -0
    outer loop
      vertex 90 60 -70
      vertex 80 60 -50
      vertex 90 60 -50
    endloop
  endfacet
  facet normal 0 1 0
    outer loop
      vertex 80 60 -50
      vertex 90 60 -70
      vertex 80 60 -70
    endloop
  endfacet
  facet normal 0 1 -0
    outer loop
      vertex 80 65 -80
      vertex 60 65 -75
      vertex 80 65 -75
    endloop
  endfacet
  facet normal 0 1 0
    outer loop
      vertex 60 65 -75
      vertex 80 65 -80
      vertex 60 65 -80
    endloop
  endfacet
  facet normal 0 1 0
    outer loop
      vertex 60 65 -75
      vertex 60 65 -45
      vertex 80 65 -45
    endloop
  endfacet
  facet normal 0 1 0
    outer loop
      vertex 60 65 -75
      vertex 80 65 -45
      vertex 80 65 -75
    endloop
  endfacet
  facet normal 0 1 0
    outer loop
      vertex 60 65 -45
      vertex 60 65 -75
      vertex 55 65 -45
    endloop
  endfacet
  facet normal 0 1 0
    outer loop
      vertex 55 65 -45
      vertex 60 65 -75
      vertex 55 65 -75
    endloop
  endfacet
  facet normal 0 1 -0
    outer loop
      vertex 80 65 -45
      vertex 60 65 -40
      vertex 80 65 -40
    endloop
  endfacet
  facet normal 0 1 0
    outer loop
      vertex 60 65 -40
      vertex 80 65 -45
      vertex 60 65 -45
    endloop
  endfacet
  facet normal -1 0 0
    outer loop
      vertex 55 35 -75
      vertex 55 40 -65
      vertex 55 40 -75
    endloop
  endfacet
  facet normal -1 -0 0
    outer loop
      vertex 55 40 -65
      vertex 55 35 -75
      vertex 55 40 -55
    endloop
  endfacet
  facet normal -1 0 0
    outer loop
      vertex 55 35 -45
      vertex 55 40 -55
      vertex 55 35 -75
    endloop
  endfacet
  facet normal -1 0 0
    outer loop
      vertex 55 40 -55
      vertex 55 35 -45
      vertex 55 40 -50
    endloop
  endfacet
  facet normal -1 0 0
    outer loop
      vertex 55 40 -50
      vertex 55 35 -45
      vertex 55 40 -45
    endloop
  endfacet
  facet normal -1 0 0
    outer loop
      vertex 55 40 -75
      vertex 55 45 -70
      vertex 55 45 -75
    endloop
  endfacet
  facet normal -1 0 0
    outer loop
      vertex 55 40 -65
      vertex 55 45 -70
      vertex 55 40 -75
    endloop
  endfacet
  facet normal -1 0 0
    outer loop
      vertex 55 45 -70
      vertex 55 40 -65
      vertex 55 45 -65
    endloop
  endfacet
  facet normal -1 0 0
    outer loop
      vertex 55 45 -75
      vertex 55 55 -70
      vertex 55 55 -75
    endloop
  endfacet
  facet normal -1 -0 0
    outer loop
      vertex 55 55 -70
      vertex 55 45 -75
      vertex 55 45 -70
    endloop
  endfacet
  facet normal -1 0 0
    outer loop
      vertex 55 60 -70
      vertex 55 65 -75
      vertex 55 60 -75
    endloop
  endfacet
  facet normal -1 0 0
    outer loop
      vertex 55 65 -75
      vertex 55 60 -70
      vertex 55 65 -45
    endloop
  endfacet
  facet normal -1 0 0
    outer loop
      vertex 55 60 -50
      vertex 55 65 -45
      vertex 55 60 -70
    endloop
  endfacet
  facet normal -1 -0 0
    outer loop
      vertex 55 65 -45
      vertex 55 60 -50
      vertex 55 60 -45
    endloop
  endfacet
  facet normal -1 0 0
    outer loop
      vertex 55 55 -75
      vertex 55 60 -70
      vertex 55 60 -75
    endloop
  endfacet
  facet normal -1 -0 0
    outer loop
      vertex 55 60 -70
      vertex 55 55 -75
      vertex 55 55 -70
    endloop
  endfacet
  facet normal -1 0 0
    outer loop
      vertex 55 40 -55
      vertex 55 45 -50
      vertex 55 45 -55
    endloop
  endfacet
  facet normal -1 -0 0
    outer loop
      vertex 55 45 -50
      vertex 55 40 -55
      vertex 55 40 -50
    endloop
  endfacet
  facet normal -1 0 0
    outer loop
      vertex 55 45 -50
      vertex 55 55 -45
      vertex 55 55 -50
    endloop
  endfacet
  facet normal -1 0 0
    outer loop
      vertex 55 40 -45
      vertex 55 45 -50
      vertex 55 40 -50
    endloop
  endfacet
  facet normal -1 0 0
    outer loop
      vertex 55 45 -50
      vertex 55 40 -45
      vertex 55 55 -45
    endloop
  endfacet
  facet normal -1 0 0
    outer loop
      vertex 55 55 -50
      vertex 55 60 -45
      vertex 55 60 -50
    endloop
  endfacet
  facet normal -1 -0 0
    outer loop
      vertex 55 60 -45
      vertex 55 55 -50
      vertex 55 55 -45
    endloop
  endfacet
  facet normal -1 0 0
    outer loop
      vertex 55 40 -65
      vertex 55 45 -55
      vertex 55 45 -65
    endloop
  endfacet
  facet normal -1 -0 0
    outer loop
      vertex 55 45 -55
      vertex 55 40 -65
      vertex 55 40 -55
    endloop
  endfacet
  facet normal 0 1 -0
    outer loop
      vertex 55 60 -70
      vertex 50 60 -50
      vertex 55 60 -50
    endloop
  endfacet
  facet normal 0 1 0
    outer loop
      vertex 50 60 -50
      vertex 55 60 -70
      vertex 50 60 -70
    endloop
  endfacet
  facet normal -1 0 0
    outer loop
      vertex 50 45 -65
      vertex 50 50 -55
      vertex 50 50 -65
    endloop
  endfacet
  facet normal -1 -0 0
    outer loop
      vertex 50 50 -55
      vertex 50 45 -65
      vertex 50 45 -55
    endloop
  endfacet
  facet normal -1 0 0
    outer loop
      vertex 50 55 -70
      vertex 50 50 -65
      vertex 50 55 -65
    endloop
  endfacet
  facet normal -1 0 0
    outer loop
      vertex 50 45 -70
      vertex 50 50 -65
      vertex 50 55 -70
    endloop
  endfacet
  facet normal -1 -0 0
    outer loop
      vertex 50 50 -65
      vertex 50 45 -70
      vertex 50 45 -65
    endloop
  endfacet
  facet normal -1 0 0
    outer loop
      vertex 50 55 -65
      vertex 50 60 -70
      vertex 50 55 -70
    endloop
  endfacet
  facet normal -1 0 0
    outer loop
      vertex 50 60 -70
      vertex 50 55 -65
      vertex 50 60 -50
    endloop
  endfacet
  facet normal -1 0 0
    outer loop
      vertex 50 55 -55
      vertex 50 60 -50
      vertex 50 55 -65
    endloop
  endfacet
  facet normal -1 -0 0
    outer loop
      vertex 50 60 -50
      vertex 50 55 -55
      vertex 50 55 -50
    endloop
  endfacet
  facet normal -1 0 0
    outer loop
      vertex 50 50 -55
      vertex 50 55 -50
      vertex 50 55 -55
    endloop
  endfacet
  facet normal -1 0 0
    outer loop
      vertex 50 45 -50
      vertex 50 50 -55
      vertex 50 45 -55
    endloop
  endfacet
  facet normal -1 0 0
    outer loop
      vertex 50 50 -55
      vertex 50 45 -50
      vertex 50 55 -50
    endloop
  endfacet
  facet normal 0 1 -0
    outer loop
      vertex 50 55 -65
      vertex 45 55 -55
      vertex 50 55 -55
    endloop
  endfacet
  facet normal 0 1 0
    outer loop
      vertex 45 55 -55
      vertex 50 55 -65
      vertex 45 55 -65
    endloop
  endfacet
  facet normal -1 0 0
    outer loop
      vertex 45 50 -65
      vertex 45 55 -55
      vertex 45 55 -65
    endloop
  endfacet
  facet normal -1 -0 0
    outer loop
      vertex 45 55 -55
      vertex 45 50 -65
      vertex 45 50 -55
    endloop
  endfacet
  facet normal 0 -1 0
    outer loop
      vertex 45 50 -65
      vertex 50 50 -55
      vertex 45 50 -55
    endloop
  endfacet
  facet normal 0 -1 -0
    outer loop
      vertex 50 50 -55
      vertex 45 50 -65
      vertex 50 50 -65
    endloop
  endfacet
  facet normal 0 -1 0
    outer loop
      vertex 50 45 -70
      vertex 55 45 -65
      vertex 50 45 -65
    endloop
  endfacet
  facet normal 0 -1 -0
    outer loop
      vertex 55 45 -65
      vertex 50 45 -70
      vertex 55 45 -70
    endloop
  endfacet
  facet normal 0 -1 0
    outer loop
      vertex 50 45 -55
      vertex 55 45 -50
      vertex 50 45 -50
    endloop
  endfacet
  facet normal 0 -1 -0
    outer loop
      vertex 55 45 -50
      vertex 50 45 -55
      vertex 55 45 -55
    endloop
  endfacet
  facet normal 0 -1 0
    outer loop
      vertex 50 45 -65
      vertex 55 45 -55
      vertex 50 45 -55
    endloop
  endfacet
  facet normal 0 -1 -0
    outer loop
      vertex 55 45 -55
      vertex 50 45 -65
      vertex 55 45 -65
    endloop
  endfacet
  facet normal 0 -1 0
    outer loop
      vertex 80 40 -75
      vertex 95 40 -65
      vertex 80 40 -65
    endloop
  endfacet
  facet normal 0 -1 -0
    outer loop
      vertex 95 40 -65
      vertex 80 40 -75
      vertex 95 40 -75
    endloop
  endfacet
  facet normal 0 -1 0
    outer loop
      vertex 80 40 -65
      vertex 95 40 -55
      vertex 80 40 -55
    endloop
  endfacet
  facet normal 0 -1 -0
    outer loop
      vertex 95 40 -55
      vertex 80 40 -65
      vertex 95 40 -65
    endloop
  endfacet
  facet normal 0 -1 0
    outer loop
      vertex 80 40 -55
      vertex 95 40 -50
      vertex 80 40 -50
    endloop
  endfacet
  facet normal 0 -1 -0
    outer loop
      vertex 95 40 -50
      vertex 80 40 -55
      vertex 95 40 -55
    endloop
  endfacet
  facet normal 0 -1 0
    outer loop
      vertex 80 40 -50
      vertex 95 40 -45
      vertex 80 40 -45
    endloop
  endfacet
  facet normal 0 -1 -0
    outer loop
      vertex 95 40 -45
      vertex 80 40 -50
      vertex 95 40 -50
    endloop
  endfacet
  facet normal 0 -1 0
    outer loop
      vertex 95 30 -80
      vertex 100 30 -65
      vertex 95 30 -65
    endloop
  endfacet
  facet normal 0 -1 -0
    outer loop
      vertex 100 30 -65
      vertex 95 30 -80
      vertex 100 30 -80
    endloop
  endfacet
  facet normal 0 -1 0
    outer loop
      vertex 95 30 -55
      vertex 100 30 -45
      vertex 95 30 -45
    endloop
  endfacet
  facet normal 0 -1 -0
    outer loop
      vertex 100 30 -45
      vertex 95 30 -55
      vertex 100 30 -55
    endloop
  endfacet
  facet normal 0 -1 0
    outer loop
      vertex 95 30 -45
      vertex 100 30 -40
      vertex 95 30 -40
    endloop
  endfacet
  facet normal 0 -1 -0
    outer loop
      vertex 100 30 -40
      vertex 95 30 -45
      vertex 100 30 -45
    endloop
  endfacet
  facet normal 1 -0 0
    outer loop
      vertex 100 45 -75
      vertex 100 55 -80
      vertex 100 55 -75
    endloop
  endfacet
  facet normal 1 0 0
    outer loop
      vertex 100 55 -80
      vertex 100 45 -75
      vertex 100 45 -80
    endloop
  endfacet
  facet normal 1 -0 0
    outer loop
      vertex 100 30 -65
      vertex 100 40 -75
      vertex 100 40 -65
    endloop
  endfacet
  facet normal 1 0 0
    outer loop
      vertex 100 30 -80
      vertex 100 40 -75
      vertex 100 30 -65
    endloop
  endfacet
  facet normal 1 0 0
    outer loop
      vertex 100 40 -75
      vertex 100 30 -80
      vertex 100 40 -80
    endloop
  endfacet
  facet normal 1 -0 0
    outer loop
      vertex 100 45 -65
      vertex 100 55 -70
      vertex 100 55 -65
    endloop
  endfacet
  facet normal 1 0 0
    outer loop
      vertex 100 55 -70
      vertex 100 45 -65
      vertex 100 45 -70
    endloop
  endfacet
  facet normal 1 -0 0
    outer loop
      vertex 100 40 -75
      vertex 100 45 -80
      vertex 100 45 -75
    endloop
  endfacet
  facet normal 1 0 0
    outer loop
      vertex 100 45 -80
      vertex 100 40 -75
      vertex 100 40 -80
    endloop
  endfacet
  facet normal 1 -0 0
    outer loop
      vertex 100 40 -65
      vertex 100 45 -70
      vertex 100 45 -65
    endloop
  endfacet
  facet normal 1 0 0
    outer loop
      vertex 100 40 -75
      vertex 100 45 -70
      vertex 100 40 -65
    endloop
  endfacet
  facet normal 1 0 0
    outer loop
      vertex 100 45 -70
      vertex 100 40 -75
      vertex 100 45 -75
    endloop
  endfacet
  facet normal 1 -0 0
    outer loop
      vertex 100 45 -70
      vertex 100 55 -75
      vertex 100 55 -70
    endloop
  endfacet
  facet normal 1 0 0
    outer loop
      vertex 100 55 -75
      vertex 100 45 -70
      vertex 100 45 -75
    endloop
  endfacet
  facet normal 1 -0 0
    outer loop
      vertex 100 30 -45
      vertex 100 40 -50
      vertex 100 40 -45
    endloop
  endfacet
  facet normal 1 0 0
    outer loop
      vertex 100 30 -55
      vertex 100 40 -50
      vertex 100 30 -45
    endloop
  endfacet
  facet normal 1 0 0
    outer loop
      vertex 100 40 -50
      vertex 100 30 -55
      vertex 100 40 -55
    endloop
  endfacet
  facet normal 1 -0 0
    outer loop
      vertex 100 45 -50
      vertex 100 55 -55
      vertex 100 55 -50
    endloop
  endfacet
  facet normal 1 0 0
    outer loop
      vertex 100 55 -55
      vertex 100 45 -50
      vertex 100 45 -55
    endloop
  endfacet
  facet normal 1 -0 0
    outer loop
      vertex 100 45 -40
      vertex 100 55 -45
      vertex 100 55 -40
    endloop
  endfacet
  facet normal 1 0 0
    outer loop
      vertex 100 55 -45
      vertex 100 45 -40
      vertex 100 45 -45
    endloop
  endfacet
  facet normal 1 0 0
    outer loop
      vertex 100 45 -40
      vertex 100 40 -45
      vertex 100 45 -45
    endloop
  endfacet
  facet normal 1 -0 0
    outer loop
      vertex 100 30 -40
      vertex 100 40 -45
      vertex 100 45 -40
    endloop
  endfacet
  facet normal 1 0 0
    outer loop
      vertex 100 40 -45
      vertex 100 30 -40
      vertex 100 30 -45
    endloop
  endfacet
  facet normal 1 -0 0
    outer loop
      vertex 100 40 -50
      vertex 100 45 -55
      vertex 100 45 -50
    endloop
  endfacet
  facet normal 1 0 0
    outer loop
      vertex 100 45 -55
      vertex 100 40 -50
      vertex 100 40 -55
    endloop
  endfacet
  facet normal 1 -0 0
    outer loop
      vertex 100 45 -45
      vertex 100 55 -50
      vertex 100 55 -45
    endloop
  endfacet
  facet normal 1 0 0
    outer loop
      vertex 100 45 -45
      vertex 100 45 -50
      vertex 100 55 -50
    endloop
  endfacet
  facet normal 1 -0 0
    outer loop
      vertex 100 40 -45
      vertex 100 45 -50
      vertex 100 45 -45
    endloop
  endfacet
  facet normal 1 0 0
    outer loop
      vertex 100 45 -50
      vertex 100 40 -45
      vertex 100 40 -50
    endloop
  endfacet
  facet normal 0 0 -1
    outer loop
      vertex 80 40 -75
      vertex 95 45 -75
      vertex 95 40 -75
    endloop
  endfacet
  facet normal -0 0 -1
    outer loop
      vertex 95 45 -75
      vertex 80 40 -75
      vertex 80 45 -75
    endloop
  endfacet
  facet normal 0 0 -1
    outer loop
      vertex 95 55 -75
      vertex 90 60 -75
      vertex 95 60 -75
    endloop
  endfacet
  facet normal 0 0 -1
    outer loop
      vertex 80 55 -75
      vertex 90 60 -75
      vertex 95 55 -75
    endloop
  endfacet
  facet normal -0 0 -1
    outer loop
      vertex 90 60 -75
      vertex 80 55 -75
      vertex 80 60 -75
    endloop
  endfacet
  facet normal 0 0 -1
    outer loop
      vertex 90 60 -75
      vertex 95 65 -75
      vertex 95 60 -75
    endloop
  endfacet
  facet normal -0 0 -1
    outer loop
      vertex 95 65 -75
      vertex 90 60 -75
      vertex 90 65 -75
    endloop
  endfacet
  facet normal -0 0 1
    outer loop
      vertex 95 40 -65
      vertex 100 30 -65
      vertex 100 40 -65
    endloop
  endfacet
  facet normal 0 0 1
    outer loop
      vertex 100 30 -65
      vertex 95 40 -65
      vertex 95 30 -65
    endloop
  endfacet
  facet normal -0 0 1
    outer loop
      vertex 95 45 -65
      vertex 100 40 -65
      vertex 100 45 -65
    endloop
  endfacet
  facet normal 0 0 1
    outer loop
      vertex 100 40 -65
      vertex 95 45 -65
      vertex 95 40 -65
    endloop
  endfacet
  facet normal 0 0 1
    outer loop
      vertex 95 50 -65
      vertex 100 55 -65
      vertex 95 55 -65
    endloop
  endfacet
  facet normal 0 0 1
    outer loop
      vertex 100 55 -65
      vertex 95 50 -65
      vertex 100 45 -65
    endloop
  endfacet
  facet normal 0 0 1
    outer loop
      vertex 100 45 -65
      vertex 95 50 -65
      vertex 95 45 -65
    endloop
  endfacet
  facet normal 0 0 -1
    outer loop
      vertex 95 30 -55
      vertex 100 40 -55
      vertex 100 30 -55
    endloop
  endfacet
  facet normal -0 0 -1
    outer loop
      vertex 100 40 -55
      vertex 95 30 -55
      vertex 95 40 -55
    endloop
  endfacet
  facet normal 0 0 -1
    outer loop
      vertex 95 40 -55
      vertex 100 45 -55
      vertex 100 40 -55
    endloop
  endfacet
  facet normal -0 0 -1
    outer loop
      vertex 100 45 -55
      vertex 95 40 -55
      vertex 95 45 -55
    endloop
  endfacet
  facet normal 0 0 -1
    outer loop
      vertex 95 50 -55
      vertex 100 45 -55
      vertex 95 45 -55
    endloop
  endfacet
  facet normal 0 0 -1
    outer loop
      vertex 100 45 -55
      vertex 95 50 -55
      vertex 100 55 -55
    endloop
  endfacet
  facet normal -0 0 -1
    outer loop
      vertex 100 55 -55
      vertex 95 50 -55
      vertex 95 55 -55
    endloop
  endfacet
  facet normal -0 0 1
    outer loop
      vertex 90 60 -45
      vertex 95 55 -45
      vertex 95 60 -45
    endloop
  endfacet
  facet normal 0 0 1
    outer loop
      vertex 80 55 -45
      vertex 90 60 -45
      vertex 80 60 -45
    endloop
  endfacet
  facet normal 0 0 1
    outer loop
      vertex 90 60 -45
      vertex 80 55 -45
      vertex 95 55 -45
    endloop
  endfacet
  facet normal -0 0 1
    outer loop
      vertex 80 45 -45
      vertex 95 40 -45
      vertex 95 45 -45
    endloop
  endfacet
  facet normal 0 0 1
    outer loop
      vertex 95 40 -45
      vertex 80 45 -45
      vertex 80 40 -45
    endloop
  endfacet
  facet normal -0 0 1
    outer loop
      vertex 90 65 -45
      vertex 95 60 -45
      vertex 95 65 -45
    endloop
  endfacet
  facet normal 0 0 1
    outer loop
      vertex 95 60 -45
      vertex 90 65 -45
      vertex 90 60 -45
    endloop
  endfacet
  facet normal -0 0 1
    outer loop
      vertex 60 65 -40
      vertex 80 55 -40
      vertex 80 65 -40
    endloop
  endfacet
  facet normal 0 0 1
    outer loop
      vertex 80 55 -40
      vertex 60 65 -40
      vertex 60 55 -40
    endloop
  endfacet
  facet normal -0 0 1
    outer loop
      vertex 60 45 -40
      vertex 80 35 -40
      vertex 80 45 -40
    endloop
  endfacet
  facet normal 0 0 1
    outer loop
      vertex 80 35 -40
      vertex 60 45 -40
      vertex 60 35 -40
    endloop
  endfacet
  facet normal -0 0 1
    outer loop
      vertex 60 55 -40
      vertex 80 45 -40
      vertex 80 55 -40
    endloop
  endfacet
  facet normal 0 0 1
    outer loop
      vertex 80 45 -40
      vertex 60 55 -40
      vertex 60 45 -40
    endloop
  endfacet
  facet normal -1 0 0
    outer loop
      vertex 60 60 -45
      vertex 60 65 -40
      vertex 60 65 -45
    endloop
  endfacet
  facet normal -1 0 0
    outer loop
      vertex 60 55 -40
      vertex 60 60 -45
      vertex 60 55 -45
    endloop
  endfacet
  facet normal -1 0 0
    outer loop
      vertex 60 60 -45
      vertex 60 55 -40
      vertex 60 65 -40
    endloop
  endfacet
  facet normal -1 0 0
    outer loop
      vertex 60 40 -45
      vertex 60 45 -40
      vertex 60 45 -45
    endloop
  endfacet
  facet normal -1 0 0
    outer loop
      vertex 60 35 -40
      vertex 60 40 -45
      vertex 60 35 -45
    endloop
  endfacet
  facet normal -1 0 0
    outer loop
      vertex 60 40 -45
      vertex 60 35 -40
      vertex 60 45 -40
    endloop
  endfacet
  facet normal -1 0 0
    outer loop
      vertex 60 45 -45
      vertex 60 55 -40
      vertex 60 55 -45
    endloop
  endfacet
  facet normal -1 -0 0
    outer loop
      vertex 60 55 -40
      vertex 60 45 -45
      vertex 60 45 -40
    endloop
  endfacet
  facet normal -0 0 1
    outer loop
      vertex 55 65 -45
      vertex 60 60 -45
      vertex 60 65 -45
    endloop
  endfacet
  facet normal 0 0 1
    outer loop
      vertex 60 60 -45
      vertex 55 65 -45
      vertex 55 60 -45
    endloop
  endfacet
  facet normal -0 0 1
    outer loop
      vertex 55 40 -45
      vertex 60 35 -45
      vertex 60 40 -45
    endloop
  endfacet
  facet normal 0 0 1
    outer loop
      vertex 60 35 -45
      vertex 55 40 -45
      vertex 55 35 -45
    endloop
  endfacet
  facet normal -0 0 1
    outer loop
      vertex 55 55 -45
      vertex 60 45 -45
      vertex 60 55 -45
    endloop
  endfacet
  facet normal 0 0 1
    outer loop
      vertex 55 40 -45
      vertex 60 45 -45
      vertex 55 55 -45
    endloop
  endfacet
  facet normal 0 0 1
    outer loop
      vertex 60 45 -45
      vertex 55 40 -45
      vertex 60 40 -45
    endloop
  endfacet
  facet normal -0 0 1
    outer loop
      vertex 55 60 -45
      vertex 60 55 -45
      vertex 60 60 -45
    endloop
  endfacet
  facet normal 0 0 1
    outer loop
      vertex 60 55 -45
      vertex 55 60 -45
      vertex 55 55 -45
    endloop
  endfacet
  facet normal -0 0 1
    outer loop
      vertex 50 55 -50
      vertex 55 45 -50
      vertex 55 55 -50
    endloop
  endfacet
  facet normal 0 0 1
    outer loop
      vertex 55 45 -50
      vertex 50 55 -50
      vertex 50 45 -50
    endloop
  endfacet
  facet normal -0 0 1
    outer loop
      vertex 50 60 -50
      vertex 55 55 -50
      vertex 55 60 -50
    endloop
  endfacet
  facet normal 0 0 1
    outer loop
      vertex 55 55 -50
      vertex 50 60 -50
      vertex 50 55 -50
    endloop
  endfacet
  facet normal -0 0 1
    outer loop
      vertex 45 55 -55
      vertex 50 50 -55
      vertex 50 55 -55
    endloop
  endfacet
  facet normal 0 0 1
    outer loop
      vertex 50 50 -55
      vertex 45 55 -55
      vertex 45 50 -55
    endloop
  endfacet
  facet normal 0 0 -1
    outer loop
      vertex 45 50 -65
      vertex 50 55 -65
      vertex 50 50 -65
    endloop
  endfacet
  facet normal -0 0 -1
    outer loop
      vertex 50 55 -65
      vertex 45 50 -65
      vertex 45 55 -65
    endloop
  endfacet
  facet normal 0 0 -1
    outer loop
      vertex 50 45 -70
      vertex 55 55 -70
      vertex 55 45 -70
    endloop
  endfacet
  facet normal -0 0 -1
    outer loop
      vertex 55 55 -70
      vertex 50 45 -70
      vertex 50 55 -70
    endloop
  endfacet
  facet normal 0 0 -1
    outer loop
      vertex 50 55 -70
      vertex 55 60 -70
      vertex 55 55 -70
    endloop
  endfacet
  facet normal -0 0 -1
    outer loop
      vertex 55 60 -70
      vertex 50 55 -70
      vertex 50 60 -70
    endloop
  endfacet
  facet normal 0 0 -1
    outer loop
      vertex 55 35 -75
      vertex 60 40 -75
      vertex 60 35 -75
    endloop
  endfacet
  facet normal -0 0 -1
    outer loop
      vertex 60 40 -75
      vertex 55 35 -75
      vertex 55 40 -75
    endloop
  endfacet
  facet normal 0 0 -1
    outer loop
      vertex 55 60 -75
      vertex 60 65 -75
      vertex 60 60 -75
    endloop
  endfacet
  facet normal -0 0 -1
    outer loop
      vertex 60 65 -75
      vertex 55 60 -75
      vertex 55 65 -75
    endloop
  endfacet
  facet normal 0 0 -1
    outer loop
      vertex 55 40 -75
      vertex 60 45 -75
      vertex 60 40 -75
    endloop
  endfacet
  facet normal -0 0 -1
    outer loop
      vertex 60 45 -75
      vertex 55 40 -75
      vertex 55 45 -75
    endloop
  endfacet
  facet normal 0 0 -1
    outer loop
      vertex 55 45 -75
      vertex 60 55 -75
      vertex 60 45 -75
    endloop
  endfacet
  facet normal -0 0 -1
    outer loop
      vertex 60 55 -75
      vertex 55 45 -75
      vertex 55 55 -75
    endloop
  endfacet
  facet normal 0 0 -1
    outer loop
      vertex 55 55 -75
      vertex 60 60 -75
      vertex 60 55 -75
    endloop
  endfacet
  facet normal -0 0 -1
    outer loop
      vertex 60 60 -75
      vertex 55 55 -75
      vertex 55 60 -75
    endloop
  endfacet
  facet normal -1 0 0
    outer loop
      vertex 60 65 -80
      vertex 60 60 -75
      vertex 60 65 -75
    endloop
  endfacet
  facet normal -1 0 0
    outer loop
      vertex 60 55 -80
      vertex 60 60 -75
      vertex 60 65 -80
    endloop
  endfacet
  facet normal -1 -0 0
    outer loop
      vertex 60 60 -75
      vertex 60 55 -80
      vertex 60 55 -75
    endloop
  endfacet
  facet normal -1 0 0
    outer loop
      vertex 60 45 -80
      vertex 60 40 -75
      vertex 60 45 -75
    endloop
  endfacet
  facet normal -1 0 0
    outer loop
      vertex 60 35 -80
      vertex 60 40 -75
      vertex 60 45 -80
    endloop
  endfacet
  facet normal -1 -0 0
    outer loop
      vertex 60 40 -75
      vertex 60 35 -80
      vertex 60 35 -75
    endloop
  endfacet
  facet normal -1 0 0
    outer loop
      vertex 60 45 -80
      vertex 60 55 -75
      vertex 60 55 -80
    endloop
  endfacet
  facet normal -1 -0 0
    outer loop
      vertex 60 55 -75
      vertex 60 45 -80
      vertex 60 45 -75
    endloop
  endfacet
  facet normal 0 0 -1
    outer loop
      vertex 60 55 -80
      vertex 80 65 -80
      vertex 80 55 -80
    endloop
  endfacet
  facet normal -0 0 -1
    outer loop
      vertex 80 65 -80
      vertex 60 55 -80
      vertex 60 65 -80
    endloop
  endfacet
  facet normal 0 0 -1
    outer loop
      vertex 60 35 -80
      vertex 80 45 -80
      vertex 80 35 -80
    endloop
  endfacet
  facet normal -0 0 -1
    outer loop
      vertex 80 45 -80
      vertex 60 35 -80
      vertex 60 45 -80
    endloop
  endfacet
  facet normal 0 0 -1
    outer loop
      vertex 60 45 -80
      vertex 80 55 -80
      vertex 80 45 -80
    endloop
  endfacet
  facet normal -0 0 -1
    outer loop
      vertex 80 55 -80
      vertex 60 45 -80
      vertex 60 55 -80
    endloop
  endfacet
endsolid OpenSCAD_Model
